<svg xmlns="http://www.w3.org/2000/svg" viewBox="0 0 24 24"><defs><style>.cls-1,.cls-3{fill:#fff;stroke:#1d1d1b;stroke-width:0.13px;}.cls-1{stroke-miterlimit:10;}.cls-2{fill:#42b883;}.cls-3{stroke-linecap:round;stroke-linejoin:round;}.cls-4{opacity:0.15;}</style></defs><g id="About_us"><polygon class="cls-1" points="3 8 3 9.93 9 10 9 8 6 6.33 3 8"/><circle class="cls-1" cx="18" cy="8" r="3"/><path class="cls-2" d="M10,13,2,15H2c0-1.1.9-4,2-4H8a2,2,0,0,1,2,2Z"/><path class="cls-2" d="M22,15l-8-2h0a2,2,0,0,1,2-2h4c1.1,0,2,2.9,2,4Z"/><circle class="cls-1" cx="12" cy="13" r="4"/><path class="cls-2" d="M9,17h6a3,3,0,0,1,3,3v0a0,0,0,0,1,0,0H6a0,0,0,0,1,0,0v0A3,3,0,0,1,9,17Z"/><path class="cls-1" d="M16,13a4,4,0,0,0-8,0l1-1h6Z"/><circle class="cls-1" cx="6" cy="8" r="3"/><path class="cls-1" d="M9,8,6,7.21,3,8A3,3,0,0,1,5.41,5.06,1.67,1.67,0,0,1,5.59,4,.72.72,0,0,1,6,3.88.61.61,0,0,1,6.45,4,1.87,1.87,0,0,1,6.6,5.06,3,3,0,0,1,9,8Z"/><path class="cls-3" d="M21,8,20,7H16L15,8V6.1A2.1,2.1,0,0,1,17.1,4h1.8A2.1,2.1,0,0,1,21,6.1Z"/></g></svg>