<svg xmlns="http://www.w3.org/2000/svg" viewBox="0 0 24 24"><defs><style>.cls-1{fill:#1d1d1b;stroke-width:0.13px;}.cls-1,.cls-4,.cls-5,.cls-6,.cls-7,.cls-8{stroke:#1d1d1b;}.cls-1,.cls-6,.cls-7,.cls-8{stroke-miterlimit:10;}.cls-2,.cls-5,.cls-6{fill:#fff;}.cls-3,.cls-7{fill:#575756;}.cls-4,.cls-8,.cls-9{fill:#42b883;}.cls-4,.cls-5{stroke-linejoin:round;stroke-width:0.12px;}.cls-6{stroke-width:0.15px;}.cls-7,.cls-8{stroke-width:0.13px;}.cls-10{opacity:0.15;}</style></defs><g id="Services"><rect class="cls-1" x="4.23" y="6" width="15.77" height="10.34"/><path class="cls-2" d="M19.94,5H4.06A1.07,1.07,0,0,0,3,6.06v9.88A1.07,1.07,0,0,0,4.06,17H11v1a1,1,0,0,1-1,1H7v1H17V19H14a1,1,0,0,1-1-1V17h6.94A1.07,1.07,0,0,0,21,15.94V6.06A1.07,1.07,0,0,0,19.94,5ZM19,15,4.91,15V7H19Z"/><circle class="cls-3" cx="12" cy="16" r="0.62"/><path class="cls-4" d="M9.64,7.84,7.39,10,10,11.39l.53-3.08h0l-.44-.24-.67.78.23-1Z"/><polygon class="cls-5" points="3.97 20.66 3.09 20.19 7.39 10.02 9.99 11.39 3.97 20.66"/><rect class="cls-6" x="11" y="7.5" width="7" height="7"/><rect class="cls-7" x="11" y="7.5" width="7" height="1"/><rect class="cls-8" x="17" y="7.5" width="1" height="1"/><circle class="cls-9" cx="14.49" cy="11.5" r="2.36"/></g></svg>