<svg xmlns="http://www.w3.org/2000/svg" viewBox="0 0 20.61 20.61"><defs><style>.cls-1{fill:#1d71b8;}.cls-2{fill:#42b883;}.cls-3{fill:none;stroke:#fff;stroke-miterlimit:10;stroke-width:0.66px;}.cls-4{fill:#ef2546;}.cls-5{fill:#9e1025;}.cls-6{fill:#fff;}</style></defs><g id="Capa_2" data-name="Capa 2"><g id="Redes_Sociales" data-name="Redes Sociales"><g id="Ubicacion"><circle class="cls-1" cx="10.31" cy="10.31" r="9.97"/><path class="cls-2" d="M8,.61l2.34,1.5,1,2.85-.55.6,0,.86-.06,0-.6-.22-.77.5L9.09,7.87l1.57,2.54L10.9,10l.3-.07.08.35.88.06.26.74,1.1.41.35-.21,2-.62,4.07,1.92s.21.45-.81,2.36a11.44,11.44,0,0,1-4.55,4.35V15.39l-.95-1.76-.18-1.93-3.14-1.06-1.4-.05-2.8-2L7,9.72l-.14.13L2.56,7,2.15,4.56a11.39,11.39,0,0,1,3.46-3C7.49.51,8,.61,8,.61Z"/><circle class="cls-3" cx="10.31" cy="10.31" r="9.97"/><path class="cls-4" d="M9.43,3.33c0,1.59,2.88,6.62,2.88,6.62V.45A2.88,2.88,0,0,0,9.43,3.33Z"/><path class="cls-5" d="M15.18,3.32c0,1.59-2.87,6.63-2.87,6.63l0-9.5A2.89,2.89,0,0,1,15.18,3.32Z"/><circle class="cls-6" cx="12.29" cy="3.31" r="1"/></g></g></g></svg>