<svg width="140" height="106" viewBox="0 0 140 106" fill="none" xmlns="http://www.w3.org/2000/svg">
<path d="M45.6995 50.7531C45.6995 50.7531 48.8494 47.7991 50.6904 47.5366C52.5314 47.2741 52.5979 48.6531 52.0379 49.9656C51.4779 51.2781 46.1579 54.1656 45.1395 56.3391L45.6995 50.7531Z" fill="#FFC9B0"/>
<path d="M45.15 56.6891C45.1187 56.6942 45.0868 56.6942 45.0555 56.6891C44.9767 56.6666 44.9083 56.6171 44.8622 56.5493C44.8162 56.4815 44.7954 56.3997 44.8035 56.3181L45.36 50.7181C45.3706 50.6346 45.4088 50.557 45.4685 50.4976C45.6015 50.3751 48.727 47.4631 50.652 47.1901C51.4745 47.0746 52.052 47.2391 52.402 47.6906C52.9515 48.3906 52.612 49.5106 52.36 50.1021C52.108 50.6936 51.0895 51.5021 49.483 52.7271C47.8765 53.9521 45.983 55.3591 45.458 56.4861C45.4306 56.5453 45.3873 56.5956 45.3329 56.6315C45.2785 56.6674 45.2151 56.6873 45.15 56.6891ZM46.0425 50.9211L45.6295 55.0651C46.6916 54.0028 47.8426 53.0333 49.07 52.1671C50.274 51.2641 51.52 50.3261 51.7265 49.8291C52.045 49.0801 52.094 48.4291 51.856 48.1176C51.618 47.8061 51.1315 47.8271 50.75 47.8831C49.203 48.1001 46.5675 50.4381 46.032 50.9211H46.0425Z" fill="#093F68"/>
<path d="M48.853 75.5086C48.853 75.5086 50.3825 71.1546 50.1865 67.6056C51.6171 65.5386 52.7692 63.2921 53.613 60.9241C54.796 57.3751 55.587 55.1106 54.2045 54.0256C52.822 52.9406 51.5445 53.9276 50.0675 55.9961C48.5905 58.0646 47.7995 59.4471 47.7995 59.4471C47.7995 59.4471 47.306 57.2771 47.0995 56.3916C46.893 55.5061 47.495 48.8036 47.691 47.9146C47.887 47.0256 49.4655 44.7646 49.6615 42.8886C49.8575 41.0126 48.8915 40.0326 47.061 41.0161C45.2305 41.9996 42.861 46.3396 42.273 47.8166C41.685 49.2936 40.103 57.6726 39.823 60.5286C39.543 63.3846 39.4275 71.4696 39.823 73.6361C40.2185 75.8026 40.705 75.5086 40.705 75.5086H48.853Z" fill="#FFC9B0"/>
<path d="M40.642 75.8866C40.562 75.8866 40.4831 75.8686 40.411 75.8341C40.152 75.7186 39.774 75.3721 39.473 73.7131C39.0705 71.5046 39.1755 63.3566 39.473 60.5076C39.774 57.6026 41.363 49.1991 41.9615 47.7011C42.588 46.1366 44.9785 41.7511 46.907 40.7221C48.104 40.0816 48.846 40.2741 49.2555 40.5506C49.8715 40.9636 50.1445 41.8106 50.0255 42.9411C49.8925 44.1906 49.2065 45.5521 48.6535 46.6441C48.4103 47.0784 48.2076 47.5342 48.048 48.0056C47.8415 48.9261 47.2815 55.5516 47.4565 56.3286C47.572 56.8536 47.8065 57.8301 47.9535 58.5371C48.3315 57.9281 48.9475 56.9796 49.7875 55.8071C50.9495 54.1796 51.8875 53.3956 52.794 53.2626C53.0856 53.2292 53.3811 53.2564 53.6617 53.3426C53.9424 53.4287 54.2022 53.5719 54.425 53.7631C55.9755 54.9811 55.195 57.3191 54.0155 60.8541L53.949 61.0501C53.1093 63.4131 51.9657 65.6567 50.547 67.7246C50.7045 71.2736 49.2485 75.4596 49.1855 75.6381C49.1616 75.7064 49.1171 75.7656 49.0582 75.8076C48.9993 75.8496 48.9288 75.8723 48.8565 75.8726H40.761C40.7218 75.8809 40.682 75.8856 40.642 75.8866ZM48.3595 40.9951C47.9621 41.0188 47.5765 41.1389 47.236 41.3451C45.57 42.2376 43.2355 46.3886 42.6055 47.9636C42.0385 49.3881 40.4565 57.7846 40.1555 60.5811C39.8545 63.3776 39.76 71.4311 40.1555 73.5906C40.369 74.7631 40.593 75.0921 40.67 75.1761H48.594C48.8985 74.2311 49.994 70.6261 49.8295 67.6441C49.8253 67.564 49.8488 67.485 49.896 67.4201C51.3027 65.3784 52.4392 63.1632 53.277 60.8296L53.34 60.6371C54.425 57.3821 55.1425 55.2296 53.984 54.3196C53.8344 54.1882 53.6592 54.0892 53.4695 54.0289C53.2797 53.9687 53.0795 53.9485 52.8815 53.9696C52.1815 54.0711 51.373 54.7886 50.344 56.2271C48.895 58.2571 48.104 59.6326 48.097 59.6466C48.062 59.7074 48.0095 59.7563 47.9463 59.7869C47.8832 59.8175 47.8123 59.8284 47.7429 59.8182C47.6734 59.8081 47.6087 59.7772 47.557 59.7298C47.5053 59.6823 47.4691 59.6204 47.453 59.5521C47.453 59.5521 46.9595 57.3821 46.753 56.4931C46.5395 55.5201 47.138 48.7931 47.3445 47.8691C47.5156 47.3393 47.7396 46.8281 48.013 46.3431C48.538 45.2931 49.1925 44.0051 49.3115 42.8816C49.399 42.0346 49.231 41.4011 48.8495 41.1316C48.7028 41.0397 48.5326 40.9923 48.3595 40.9951Z" fill="#093F68"/>
<path d="M52.346 75.1271H37.17V82.7151H52.346V75.1271Z" fill="#F7931E"/>
<path d="M52.346 83.0651H37.17C37.0772 83.0651 36.9881 83.0282 36.9225 82.9626C36.8569 82.897 36.82 82.8079 36.82 82.7151V75.1271C36.82 75.0343 36.8569 74.9453 36.9225 74.8796C36.9881 74.814 37.0772 74.7771 37.17 74.7771H52.346C52.4388 74.7771 52.5278 74.814 52.5935 74.8796C52.6591 74.9453 52.696 75.0343 52.696 75.1271V82.7151C52.696 82.8079 52.6591 82.897 52.5935 82.9626C52.5278 83.0282 52.4388 83.0651 52.346 83.0651ZM37.52 82.3651H51.996V75.4771H37.52V82.3651Z" fill="#093F68"/>
<path d="M51.3625 72.3026H38.1535V75.1271H51.3625V72.3026Z" fill="white"/>
<path d="M51.3625 75.4771H38.15C38.0572 75.4771 37.9681 75.4402 37.9025 75.3746C37.8369 75.309 37.8 75.2199 37.8 75.1271V72.3026C37.8 72.2098 37.8369 72.1208 37.9025 72.0551C37.9681 71.9895 38.0572 71.9526 38.15 71.9526H51.359C51.4518 71.9526 51.5408 71.9895 51.6065 72.0551C51.6721 72.1208 51.709 72.2098 51.709 72.3026V75.1271C51.709 75.2193 51.6726 75.3078 51.6077 75.3734C51.5428 75.4389 51.4547 75.4762 51.3625 75.4771ZM38.5035 74.7771H51.0125V72.6526H38.5L38.5035 74.7771Z" fill="#093F68"/>
<path d="M94.3005 50.7531C94.3005 50.7531 91.1505 47.7991 89.3095 47.5366C87.4685 47.2741 87.402 48.6531 87.962 49.9656C88.522 51.2781 93.842 54.1656 94.8605 56.3391L94.3005 50.7531Z" fill="#FFC9B0"/>
<path d="M94.8499 56.6891C94.783 56.6893 94.7174 56.6703 94.661 56.6343C94.6045 56.5983 94.5596 56.5469 94.5314 56.4861C94.0029 55.3591 92.1479 53.9626 90.5064 52.7271C88.8649 51.4916 87.8989 50.7391 87.6294 50.1021C87.3599 49.4651 87.0379 48.4081 87.5874 47.6906C87.9374 47.2391 88.5254 47.0711 89.3374 47.1901C91.2624 47.4631 94.3879 50.3751 94.5209 50.4976C94.5807 50.557 94.6188 50.6346 94.6294 50.7181L95.1859 56.3181C95.194 56.3997 95.1732 56.4815 95.1272 56.5493C95.0811 56.6171 95.0127 56.6666 94.9339 56.6891C94.9061 56.6931 94.8778 56.6931 94.8499 56.6891ZM88.8999 47.8586C88.7661 47.8444 88.6308 47.8606 88.5041 47.9061C88.3774 47.9515 88.2627 48.025 88.1684 48.1211C87.9304 48.4291 87.9794 49.0836 88.2979 49.8326C88.5079 50.3296 89.7504 51.2676 90.9544 52.1706C92.1818 53.0367 93.3329 54.0063 94.3949 55.0686L93.9819 50.9246C93.4464 50.4416 90.8109 48.1036 89.2744 47.8866C89.1505 47.8682 89.0253 47.8588 88.8999 47.8586Z" fill="#093F68"/>
<path d="M91.147 75.5086C91.147 75.5086 89.6175 71.1546 89.8135 67.6056C88.3829 65.5386 87.2308 63.2921 86.387 60.9241C85.204 57.3751 84.413 55.1106 85.7955 54.0256C87.178 52.9406 88.4555 53.9276 89.9325 55.9961C91.4095 58.0646 92.2005 59.4471 92.2005 59.4471C92.2005 59.4471 92.694 57.2771 92.9005 56.3916C93.107 55.5061 92.505 48.8036 92.309 47.9146C92.113 47.0256 90.5345 44.7646 90.3385 42.8886C90.1425 41.0126 91.1085 40.0326 92.939 41.0161C94.7695 41.9996 97.139 46.3396 97.727 47.8166C98.315 49.2936 99.897 57.6726 100.177 60.5286C100.457 63.3846 100.573 71.4696 100.177 73.6361C99.7815 75.8026 99.295 75.5086 99.295 75.5086H91.147Z" fill="#FFC9B0"/>
<path d="M99.358 75.8866C99.3184 75.8903 99.2785 75.8903 99.239 75.8866H91.147C91.0746 75.8863 91.0041 75.8636 90.9452 75.8217C90.8863 75.7797 90.8418 75.7204 90.818 75.6521C90.755 75.4736 89.299 71.2876 89.4565 67.7386C88.0378 65.6708 86.8942 63.4271 86.0545 61.0641L85.988 60.8681C84.8085 57.3331 84.028 54.9951 85.5785 53.7771C85.8012 53.5859 86.061 53.4427 86.3417 53.3566C86.6224 53.2705 86.9178 53.2432 87.2095 53.2766C88.1265 53.4096 89.054 54.1936 90.216 55.8211C91.056 56.9936 91.672 57.9421 92.05 58.5511C92.211 57.8511 92.4315 56.8676 92.547 56.3426C92.722 55.5656 92.162 48.9401 91.9555 48.0196C91.7958 47.5482 91.5931 47.0924 91.35 46.6581C90.797 45.5661 90.111 44.2081 89.978 42.9551C89.859 41.8246 90.132 40.9776 90.748 40.5646C91.1575 40.2881 91.8995 40.0956 93.0965 40.7361C95.025 41.7861 97.4155 46.1506 98.042 47.7151C98.6405 49.2131 100.229 57.6166 100.53 60.5216C100.824 63.3706 100.929 71.5186 100.53 73.7271C100.229 75.3861 99.8515 75.7326 99.5925 75.8481C99.5182 75.8784 99.438 75.8915 99.358 75.8866ZM91.399 75.1586H99.323C99.4 75.0746 99.624 74.7456 99.8375 73.5731C100.229 71.4101 100.124 63.3811 99.8375 60.5636C99.5505 57.7461 97.965 49.3636 97.3875 47.9461C96.7575 46.3711 94.423 42.2201 92.757 41.3276C92.057 40.9531 91.4865 40.8796 91.1295 41.1176C90.7725 41.3556 90.58 42.0066 90.6675 42.8676C90.7865 43.9911 91.441 45.2861 91.966 46.3291C92.2394 46.8141 92.4633 47.3254 92.6345 47.8551C92.841 48.7861 93.4395 55.5061 93.226 56.4791C93.0265 57.3681 92.526 59.5381 92.526 59.5381C92.5099 59.6064 92.4737 59.6683 92.422 59.7158C92.3703 59.7633 92.3055 59.7941 92.2361 59.8043C92.1666 59.8145 92.0958 59.8035 92.0326 59.7729C91.9695 59.7423 91.917 59.6934 91.882 59.6326C91.882 59.6326 91.084 58.2326 89.635 56.2131C88.606 54.7746 87.801 54.0571 87.0975 53.9556C86.8994 53.9334 86.6989 53.9531 86.509 54.0134C86.319 54.0737 86.1439 54.1733 85.995 54.3056C84.8365 55.2156 85.554 57.3681 86.639 60.6231L86.702 60.8156C87.5398 63.1492 88.6762 65.3645 90.083 67.4061C90.1301 67.471 90.1536 67.5501 90.1495 67.6301C89.999 70.6086 91.0945 74.2276 91.399 75.1586Z" fill="#093F68"/>
<path d="M87.6539 82.7186H102.83V75.1306H87.6539V82.7186Z" fill="#F7931E"/>
<path d="M102.83 83.0651H87.6539C87.5611 83.0651 87.4721 83.0282 87.4064 82.9626C87.3408 82.897 87.3039 82.8079 87.3039 82.7151V75.1271C87.3039 75.0343 87.3408 74.9453 87.4064 74.8796C87.4721 74.814 87.5611 74.7771 87.6539 74.7771H102.83C102.923 74.7771 103.012 74.814 103.077 74.8796C103.143 74.9453 103.18 75.0343 103.18 75.1271V82.7151C103.18 82.8079 103.143 82.897 103.077 82.9626C103.012 83.0282 102.923 83.0651 102.83 83.0651ZM88.0039 82.3651H102.48V75.4771H88.0039V82.3651Z" fill="#093F68"/>
<path d="M88.6375 75.1306H101.846V72.3061H88.6375V75.1306Z" fill="white"/>
<path d="M101.85 75.4771H88.6374C88.5446 75.4771 88.4556 75.4402 88.39 75.3746C88.3243 75.309 88.2874 75.2199 88.2874 75.1271V72.3026C88.2874 72.2098 88.3243 72.1208 88.39 72.0551C88.4556 71.9895 88.5446 71.9526 88.6374 71.9526H101.85C101.943 71.9526 102.032 71.9895 102.097 72.0551C102.163 72.1208 102.2 72.2098 102.2 72.3026V75.1271C102.2 75.2199 102.163 75.309 102.097 75.3746C102.032 75.4402 101.943 75.4771 101.85 75.4771ZM88.9909 74.7771H101.5V72.6526H88.9874L88.9909 74.7771Z" fill="#093F68"/>
<path d="M64.029 62.9296H75.95V64.2631C75.95 65.352 75.5174 66.3962 74.7475 67.1662C73.9776 67.9361 72.9333 68.3686 71.8445 68.3686H68.1345C67.0456 68.3686 66.0014 67.9361 65.2314 67.1662C64.4615 66.3962 64.029 65.352 64.029 64.2631V62.9296Z" fill="#093F68"/>
<path d="M71.8445 68.7221H68.1345C66.9531 68.7212 65.8203 68.2515 64.985 67.4161C64.1496 66.5807 63.6799 65.448 63.679 64.2666V62.9296C63.679 62.8368 63.7158 62.7478 63.7815 62.6821C63.8471 62.6165 63.9361 62.5796 64.029 62.5796H75.95C76.0428 62.5796 76.1318 62.6165 76.1974 62.6821C76.2631 62.7478 76.3 62.8368 76.3 62.9296V64.2666C76.299 65.448 75.8293 66.5807 74.9939 67.4161C74.1586 68.2515 73.0258 68.7212 71.8445 68.7221ZM64.379 63.2796V64.2666C64.3799 65.2624 64.7759 66.217 65.4799 66.9211C66.184 67.6252 67.1387 68.0212 68.1345 68.0221H71.8445C72.8399 68.0203 73.7941 67.624 74.498 66.9201C75.2018 66.2162 75.5981 65.2621 75.6 64.2666V63.2796H64.379Z" fill="#093F68"/>
<path d="M82.6699 39.9521C82.6732 37.9649 82.2031 36.0056 81.2986 34.2362C80.3941 32.4668 79.0811 30.9383 77.4684 29.7772C75.8558 28.6161 73.9897 27.8558 72.0248 27.5593C70.0599 27.2627 68.0526 27.4384 66.1691 28.0718C64.2856 28.7052 62.58 29.7781 61.1936 31.2017C59.8071 32.6253 58.7797 34.3587 58.1963 36.2583C57.6129 38.1579 57.4904 40.1692 57.8388 42.1256C58.1872 44.0819 58.9966 45.9272 60.2 47.5086C62.6245 50.6969 63.9385 54.5912 63.9415 58.5966H76.4084C76.3709 54.6382 77.6529 50.78 80.0519 47.6311C81.758 45.4358 82.6797 42.7324 82.6699 39.9521Z" fill="white"/>
<path d="M76.391 58.9466H63.924C63.8312 58.9466 63.7421 58.9097 63.6765 58.8441C63.6109 58.7785 63.574 58.6894 63.574 58.5966C63.5644 54.667 62.2756 50.8473 59.9025 47.7151C58.5033 45.8689 57.6288 43.6791 57.3714 41.3769C57.114 39.0747 57.4833 36.7458 58.4402 34.6362C59.3971 32.5266 60.9062 30.7146 62.8079 29.3918C64.7095 28.069 66.9332 27.2845 69.244 27.1211C71.0081 26.9893 72.7804 27.2259 74.4482 27.8158C76.116 28.4057 77.643 29.336 78.932 30.5476C80.2197 31.7528 81.2468 33.209 81.9499 34.8265C82.653 36.444 83.0172 38.1884 83.02 39.9521C83.0317 42.8173 82.0773 45.6027 80.311 47.8586C77.9624 50.9467 76.7066 54.7276 76.741 58.6071C76.7382 58.6981 76.7002 58.7845 76.6348 58.8479C76.5695 58.9112 76.482 58.9467 76.391 58.9466ZM64.2705 58.2466H76.0445C76.0818 54.3309 77.3844 50.5322 79.758 47.4176C81.4268 45.2878 82.3293 42.6579 82.32 39.9521C82.3197 38.2854 81.978 36.6363 81.3158 35.1067C80.6537 33.5772 79.6851 32.1995 78.47 31.0586C76.2434 28.9837 73.3198 27.8189 70.2763 27.7944C67.2329 27.7698 64.2909 28.8871 62.0311 30.9258C59.7712 32.9646 58.3579 35.7764 58.0701 38.8063C57.7823 41.8362 58.6409 44.8639 60.4765 47.2916C62.8628 50.4528 64.1906 54.2866 64.2705 58.2466Z" fill="#093F68"/>
<path d="M76.1145 62.0686H63.861C63.0607 62.0686 62.412 62.7174 62.412 63.5176V64.0811C62.412 64.8814 63.0607 65.5301 63.861 65.5301H76.1145C76.9148 65.5301 77.5635 64.8814 77.5635 64.0811V63.5176C77.5635 62.7174 76.9148 62.0686 76.1145 62.0686Z" fill="#FFBC0E"/>
<path d="M76.1145 65.8836H63.8645C63.387 65.8827 62.9294 65.6924 62.5922 65.3545C62.2549 65.0165 62.0655 64.5586 62.0655 64.0811V63.5211C62.0655 63.0437 62.2549 62.5857 62.5922 62.2478C62.9294 61.9099 63.387 61.7196 63.8645 61.7186H76.1145C76.5919 61.7196 77.0495 61.9099 77.3868 62.2478C77.724 62.5857 77.9135 63.0437 77.9135 63.5211V64.0811C77.9135 64.5586 77.724 65.0165 77.3868 65.3545C77.0495 65.6924 76.5919 65.8827 76.1145 65.8836ZM63.8645 62.4186C63.5727 62.4196 63.2931 62.5361 63.0871 62.7428C62.8811 62.9494 62.7655 63.2293 62.7655 63.5211V64.0811C62.7655 64.3729 62.8811 64.6528 63.0871 64.8595C63.2931 65.0661 63.5727 65.1827 63.8645 65.1836H76.1145C76.4063 65.1827 76.6858 65.0661 76.8918 64.8595C77.0978 64.6528 77.2135 64.3729 77.2135 64.0811V63.5211C77.2135 63.2293 77.0978 62.9494 76.8918 62.7428C76.6858 62.5361 76.4063 62.4196 76.1145 62.4186H63.8645Z" fill="#093F68"/>
<path d="M76.1145 58.6071H63.861C63.0607 58.6071 62.412 59.2559 62.412 60.0561V60.6196C62.412 61.4199 63.0607 62.0686 63.861 62.0686H76.1145C76.9148 62.0686 77.5635 61.4199 77.5635 60.6196V60.0561C77.5635 59.2559 76.9148 58.6071 76.1145 58.6071Z" fill="#FFBC0E"/>
<path d="M76.1145 62.4186H63.8645C63.3873 62.4186 62.9298 62.2291 62.5924 61.8917C62.255 61.5543 62.0655 61.0967 62.0655 60.6196V60.0596C62.0655 59.5822 62.2549 59.1242 62.5922 58.7863C62.9294 58.4484 63.387 58.2581 63.8645 58.2571H76.1145C76.5919 58.2581 77.0495 58.4484 77.3868 58.7863C77.724 59.1242 77.9135 59.5822 77.9135 60.0596V60.6196C77.9135 61.0967 77.7239 61.5543 77.3866 61.8917C77.0492 62.2291 76.5916 62.4186 76.1145 62.4186ZM63.8645 58.9571C63.5727 58.958 63.2931 59.0746 63.0871 59.2813C62.8811 59.4879 62.7655 59.7678 62.7655 60.0596V60.6196C62.7655 60.9111 62.8812 61.1906 63.0873 61.3967C63.2935 61.6028 63.573 61.7186 63.8645 61.7186H76.1145C76.4059 61.7186 76.6855 61.6028 76.8916 61.3967C77.0977 61.1906 77.2135 60.9111 77.2135 60.6196V60.0596C77.2135 59.7678 77.0978 59.4879 76.8918 59.2813C76.6858 59.0746 76.4063 58.958 76.1145 58.9571H63.8645Z" fill="#093F68"/>
<path d="M76.1145 55.1456H63.861C63.0607 55.1456 62.412 55.7943 62.412 56.5946V57.1581C62.412 57.9584 63.0607 58.6071 63.861 58.6071H76.1145C76.9148 58.6071 77.5635 57.9584 77.5635 57.1581V56.5946C77.5635 55.7943 76.9148 55.1456 76.1145 55.1456Z" fill="#FFBC0E"/>
<path d="M76.1145 58.9571H63.8645C63.3873 58.9571 62.9298 58.7676 62.5924 58.4302C62.255 58.0928 62.0655 57.6352 62.0655 57.1581V56.6086C62.0655 56.1315 62.255 55.6739 62.5924 55.3365C62.9298 54.9992 63.3873 54.8096 63.8645 54.8096H76.1145C76.5916 54.8096 77.0492 54.9992 77.3866 55.3365C77.7239 55.6739 77.9135 56.1315 77.9135 56.6086V57.1686C77.9107 57.6439 77.7199 58.0988 77.3829 58.4339C77.0458 58.769 76.5898 58.9571 76.1145 58.9571ZM63.8645 55.4991C63.573 55.4991 63.2935 55.6149 63.0873 55.821C62.8812 56.0271 62.7655 56.3066 62.7655 56.5981V57.1581C62.7655 57.4496 62.8812 57.7291 63.0873 57.9352C63.2935 58.1413 63.573 58.2571 63.8645 58.2571H76.1145C76.4059 58.2571 76.6855 58.1413 76.8916 57.9352C77.0977 57.7291 77.2135 57.4496 77.2135 57.1581V56.6086C77.2135 56.3171 77.0977 56.0376 76.8916 55.8315C76.6855 55.6254 76.4059 55.5096 76.1145 55.5096L63.8645 55.4991Z" fill="#093F68"/>
<path d="M74.4555 34.8071H65.7405C64.8552 34.8071 64.1375 35.5248 64.1375 36.4101V45.1251C64.1375 46.0104 64.8552 46.7281 65.7405 46.7281H74.4555C75.3408 46.7281 76.0585 46.0104 76.0585 45.1251V36.4101C76.0585 35.5248 75.3408 34.8071 74.4555 34.8071Z" fill="white"/>
<path d="M74.452 47.0781H65.7405C65.2228 47.0772 64.7266 46.8711 64.3605 46.5051C63.9945 46.139 63.7884 45.6428 63.7875 45.1251V36.4101C63.7875 35.8922 63.9933 35.3954 64.3595 35.0291C64.7258 34.6629 65.2225 34.4571 65.7405 34.4571H74.452C74.97 34.4571 75.4667 34.6629 75.833 35.0291C76.1992 35.3954 76.405 35.8922 76.405 36.4101V45.1251C76.4041 45.6428 76.198 46.139 75.832 46.5051C75.4659 46.8711 74.9697 47.0772 74.452 47.0781ZM65.7405 35.1571C65.4082 35.1571 65.0895 35.2891 64.8545 35.5241C64.6195 35.7591 64.4875 36.0778 64.4875 36.4101V45.1251C64.4875 45.2897 64.5199 45.4526 64.5829 45.6046C64.6458 45.7566 64.7381 45.8948 64.8545 46.0111C64.9708 46.1275 65.109 46.2198 65.261 46.2827C65.413 46.3457 65.5759 46.3781 65.7405 46.3781H74.452C74.6165 46.3781 74.7795 46.3457 74.9315 46.2827C75.0835 46.2198 75.2216 46.1275 75.338 46.0111C75.4544 45.8948 75.5466 45.7566 75.6096 45.6046C75.6726 45.4526 75.705 45.2897 75.705 45.1251V36.4101C75.705 36.2456 75.6726 36.0826 75.6096 35.9306C75.5466 35.7786 75.4544 35.6405 75.338 35.5241C75.2216 35.4078 75.0835 35.3155 74.9315 35.2525C74.7795 35.1895 74.6165 35.1571 74.452 35.1571H65.7405Z" fill="#093F68"/>
<path d="M74.046 36.8196H66.1465V44.7191H74.046V36.8196Z" fill="#F7931E"/>
<path d="M74.046 45.0586H66.15C66.0572 45.0586 65.9681 45.0218 65.9025 44.9561C65.8369 44.8905 65.8 44.8015 65.8 44.7086V36.8196C65.8 36.7268 65.8369 36.6378 65.9025 36.5721C65.9681 36.5065 66.0572 36.4696 66.15 36.4696H74.0495C74.1423 36.4696 74.2313 36.5065 74.297 36.5721C74.3626 36.6378 74.3995 36.7268 74.3995 36.8196V44.7086C74.3995 44.7549 74.3903 44.8007 74.3725 44.8434C74.3547 44.8861 74.3286 44.9248 74.2957 44.9574C74.2629 44.9899 74.2239 45.0156 74.181 45.033C74.1381 45.0504 74.0922 45.0591 74.046 45.0586ZM66.5 44.3586H73.6995V37.1696H66.5V44.3586Z" fill="#093F68"/>
<path d="M64.1375 39.0666H61.663C61.5701 39.0666 61.4811 39.0298 61.4155 38.9641C61.3498 38.8985 61.313 38.8095 61.313 38.7166C61.313 38.6238 61.3498 38.5348 61.4155 38.4691C61.4811 38.4035 61.5701 38.3666 61.663 38.3666H64.1375C64.2303 38.3666 64.3193 38.4035 64.385 38.4691C64.4506 38.5348 64.4875 38.6238 64.4875 38.7166C64.4875 38.8095 64.4506 38.8985 64.385 38.9641C64.3193 39.0298 64.2303 39.0666 64.1375 39.0666Z" fill="#093F68"/>
<path d="M64.1375 41.6041H60.025C59.9322 41.6041 59.8432 41.5673 59.7775 41.5016C59.7119 41.436 59.675 41.347 59.675 41.2541C59.675 41.1613 59.7119 41.0723 59.7775 41.0066C59.8432 40.941 59.9322 40.9041 60.025 40.9041H64.1375C64.2303 40.9041 64.3193 40.941 64.385 41.0066C64.4506 41.0723 64.4875 41.1613 64.4875 41.2541C64.4875 41.347 64.4506 41.436 64.385 41.5016C64.3193 41.5673 64.2303 41.6041 64.1375 41.6041Z" fill="#093F68"/>
<path d="M63.861 44.3586H62.412C62.3192 44.3586 62.2301 44.3218 62.1645 44.2561C62.0989 44.1905 62.062 44.1015 62.062 44.0086C62.062 43.9158 62.0989 43.8268 62.1645 43.7611C62.2301 43.6955 62.3192 43.6586 62.412 43.6586H63.861C63.9538 43.6586 64.0429 43.6955 64.1085 43.7611C64.1741 43.8268 64.211 43.9158 64.211 44.0086C64.211 44.1015 64.1741 44.1905 64.1085 44.2561C64.0429 44.3218 63.9538 44.3586 63.861 44.3586Z" fill="#093F68"/>
<path d="M79.604 38.6711H76.3314C76.2386 38.6711 76.1496 38.6342 76.084 38.5686C76.0183 38.503 75.9814 38.4139 75.9814 38.3211C75.9814 38.2283 76.0183 38.1393 76.084 38.0736C76.1496 38.008 76.2386 37.9711 76.3314 37.9711H79.604C79.6968 37.9711 79.7858 38.008 79.8515 38.0736C79.9171 38.1393 79.954 38.2283 79.954 38.3211C79.954 38.4139 79.9171 38.503 79.8515 38.5686C79.7858 38.6342 79.6968 38.6711 79.604 38.6711Z" fill="#093F68"/>
<path d="M77.966 41.6041H76.055C75.9622 41.6041 75.8732 41.5673 75.8075 41.5016C75.7419 41.436 75.705 41.347 75.705 41.2541C75.705 41.1613 75.7419 41.0723 75.8075 41.0066C75.8732 40.941 75.9622 40.9041 76.055 40.9041H77.966C78.0588 40.9041 78.1479 40.941 78.2135 41.0066C78.2791 41.0723 78.316 41.1613 78.316 41.2541C78.316 41.347 78.2791 41.436 78.2135 41.5016C78.1479 41.5673 78.0588 41.6041 77.966 41.6041Z" fill="#093F68"/>
<path d="M78.939 44.3586H76.055C75.9622 44.3586 75.8732 44.3218 75.8075 44.2561C75.7419 44.1905 75.705 44.1015 75.705 44.0086C75.705 43.9158 75.7419 43.8268 75.8075 43.7611C75.8732 43.6955 75.9622 43.6586 76.055 43.6586H78.939C79.0318 43.6586 79.1208 43.6955 79.1865 43.7611C79.2521 43.8268 79.289 43.9158 79.289 44.0086C79.289 44.1015 79.2521 44.1905 79.1865 44.2561C79.1208 44.3218 79.0318 44.3586 78.939 44.3586Z" fill="#093F68"/>
<path d="M72.1 35.1571C72.0072 35.1571 71.9181 35.1203 71.8525 35.0546C71.7869 34.989 71.75 34.9 71.75 34.8071V32.0071C71.75 31.9143 71.7869 31.8253 71.8525 31.7596C71.9181 31.694 72.0072 31.6571 72.1 31.6571C72.1928 31.6571 72.2818 31.694 72.3475 31.7596C72.4131 31.8253 72.45 31.9143 72.45 32.0071V34.8071C72.45 34.9 72.4131 34.989 72.3475 35.0546C72.2818 35.1203 72.1928 35.1571 72.1 35.1571Z" fill="#093F68"/>
<path d="M70 35.1571C69.9071 35.1571 69.8181 35.1203 69.7525 35.0546C69.6868 34.989 69.65 34.9 69.65 34.8071V33.4071C69.65 33.3143 69.6868 33.2253 69.7525 33.1596C69.8181 33.094 69.9071 33.0571 70 33.0571C70.0928 33.0571 70.1818 33.094 70.2474 33.1596C70.3131 33.2253 70.35 33.3143 70.35 33.4071V34.8071C70.35 34.9 70.3131 34.989 70.2474 35.0546C70.1818 35.1203 70.0928 35.1571 70 35.1571Z" fill="#093F68"/>
<path d="M66.9025 35.1571C66.8097 35.1571 66.7206 35.1203 66.655 35.0546C66.5894 34.989 66.5525 34.9 66.5525 34.8071V32.7386C66.5525 32.6458 66.5894 32.5568 66.655 32.4911C66.7206 32.4255 66.8097 32.3886 66.9025 32.3886C66.9953 32.3886 67.0843 32.4255 67.15 32.4911C67.2156 32.5568 67.2525 32.6458 67.2525 32.7386V34.8071C67.2525 34.9 67.2156 34.989 67.15 35.0546C67.0843 35.1203 66.9953 35.1571 66.9025 35.1571Z" fill="#093F68"/>
<path d="M66.9025 49.5421C66.8097 49.5421 66.7206 49.5053 66.655 49.4396C66.5894 49.374 66.5525 49.285 66.5525 49.1921V46.7421C66.5525 46.6493 66.5894 46.5603 66.655 46.4946C66.7206 46.429 66.8097 46.3921 66.9025 46.3921C66.9953 46.3921 67.0843 46.429 67.15 46.4946C67.2156 46.5603 67.2525 46.6493 67.2525 46.7421V49.1921C67.2525 49.285 67.2156 49.374 67.15 49.4396C67.0843 49.5053 66.9953 49.5421 66.9025 49.5421Z" fill="#093F68"/>
<path d="M70 51.6701C69.9071 51.6701 69.8181 51.6333 69.7525 51.5676C69.6868 51.502 69.65 51.413 69.65 51.3201V46.7281C69.65 46.6353 69.6868 46.5463 69.7525 46.4806C69.8181 46.415 69.9071 46.3781 70 46.3781C70.0928 46.3781 70.1818 46.415 70.2474 46.4806C70.3131 46.5463 70.35 46.6353 70.35 46.7281V51.3201C70.35 51.413 70.3131 51.502 70.2474 51.5676C70.1818 51.6333 70.0928 51.6701 70 51.6701Z" fill="#093F68"/>
<path d="M72.702 48.9471C72.6092 48.9471 72.5202 48.9102 72.4545 48.8446C72.3889 48.779 72.352 48.6899 72.352 48.5971V46.7281C72.352 46.6353 72.3889 46.5463 72.4545 46.4806C72.5202 46.415 72.6092 46.3781 72.702 46.3781C72.7948 46.3781 72.8838 46.415 72.9495 46.4806C73.0151 46.5463 73.052 46.6353 73.052 46.7281V48.5971C73.052 48.6899 73.0151 48.779 72.9495 48.8446C72.8838 48.9102 72.7948 48.9471 72.702 48.9471Z" fill="#093F68"/>
<path d="M70.0945 39.1891H67.6445C67.5517 39.1891 67.4626 39.1523 67.397 39.0866C67.3314 39.021 67.2945 38.932 67.2945 38.8391C67.2945 38.7463 67.3314 38.6573 67.397 38.5916C67.4626 38.526 67.5517 38.4891 67.6445 38.4891H70.0945C70.1873 38.4891 70.2763 38.526 70.342 38.5916C70.4076 38.6573 70.4445 38.7463 70.4445 38.8391C70.4445 38.932 70.4076 39.021 70.342 39.0866C70.2763 39.1523 70.1873 39.1891 70.0945 39.1891Z" fill="white"/>
<path d="M53.3785 36.6936H53.3225L48.223 35.8606C48.1302 35.8453 48.0472 35.7937 47.9924 35.7173C47.9376 35.6408 47.9154 35.5457 47.9307 35.4529C47.9461 35.36 47.9976 35.2771 48.0741 35.2223C48.1506 35.1675 48.2457 35.1453 48.3385 35.1606L53.4345 35.9971C53.5273 36.0046 53.6134 36.0485 53.6738 36.1194C53.7342 36.1903 53.7639 36.2823 53.7565 36.3751C53.7491 36.4679 53.7051 36.554 53.6342 36.6144C53.5633 36.6748 53.4713 36.7045 53.3785 36.6971V36.6936Z" fill="#DFEAEF"/>
<path d="M59.4789 27.5586C59.3913 27.5577 59.3069 27.5254 59.2409 27.4676L55.573 24.1076C55.5387 24.0765 55.511 24.0389 55.4914 23.997C55.4718 23.9551 55.4607 23.9097 55.4588 23.8635C55.4568 23.8173 55.4641 23.7712 55.4801 23.7277C55.496 23.6843 55.5205 23.6445 55.552 23.6106C55.6147 23.5426 55.7019 23.5022 55.7944 23.4982C55.8869 23.4943 55.9771 23.5272 56.0455 23.5896L59.7134 26.9496C59.7657 26.9971 59.8023 27.0592 59.8186 27.1279C59.8349 27.1966 59.83 27.2685 59.8046 27.3344C59.7793 27.4003 59.7346 27.4569 59.6765 27.4969C59.6184 27.5369 59.5495 27.5585 59.4789 27.5586Z" fill="#DFEAEF"/>
<path d="M87.15 36.6936C87.104 36.6973 87.0578 36.6919 87.0139 36.6777C86.97 36.6635 86.9294 36.6408 86.8943 36.6109C86.8592 36.581 86.8303 36.5445 86.8093 36.5034C86.7883 36.4624 86.7756 36.4176 86.772 36.3716C86.7683 36.3257 86.7737 36.2794 86.7879 36.2356C86.8021 36.1917 86.8248 36.151 86.8547 36.1159C86.9151 36.045 87.0011 36.001 87.094 35.9936L92.1934 35.1571C92.2394 35.1498 92.2864 35.1515 92.3316 35.1623C92.3769 35.1731 92.4196 35.1927 92.4573 35.22C92.495 35.2473 92.527 35.2818 92.5514 35.3214C92.5757 35.3611 92.5921 35.4052 92.5994 35.4511C92.6068 35.4971 92.605 35.544 92.5942 35.5893C92.5834 35.6346 92.5638 35.6773 92.5365 35.715C92.5092 35.7527 92.4748 35.7847 92.4351 35.809C92.3955 35.8334 92.3514 35.8498 92.3054 35.8571L87.2095 36.6901L87.15 36.6936Z" fill="#DFEAEF"/>
<path d="M81.053 27.5586C80.9821 27.5591 80.9128 27.5382 80.8541 27.4984C80.7954 27.4587 80.7502 27.402 80.7244 27.336C80.6986 27.27 80.6934 27.1977 80.7096 27.1287C80.7258 27.0597 80.7625 26.9973 80.815 26.9496L84.483 23.5896C84.517 23.5586 84.5568 23.5346 84.6001 23.5189C84.6434 23.5033 84.6893 23.4963 84.7353 23.4984C84.7813 23.5005 84.8264 23.5117 84.8681 23.5312C84.9098 23.5508 84.9472 23.5784 84.9782 23.6124C85.0093 23.6464 85.0333 23.6862 85.0489 23.7295C85.0646 23.7728 85.0715 23.8187 85.0694 23.8647C85.0673 23.9107 85.0562 23.9558 85.0366 23.9975C85.0171 24.0392 84.9895 24.0766 84.9555 24.1076L81.2875 27.4676C81.2233 27.526 81.1397 27.5584 81.053 27.5586Z" fill="#DFEAEF"/>
<path d="M70.0945 24.5696C70.0016 24.5696 69.9126 24.5327 69.847 24.4671C69.7813 24.4015 69.7445 24.3124 69.7445 24.2196V19.1586C69.7445 19.0658 69.7813 18.9768 69.847 18.9111C69.9126 18.8455 70.0016 18.8086 70.0945 18.8086C70.1873 18.8086 70.2763 18.8455 70.342 18.9111C70.4076 18.9768 70.4445 19.0658 70.4445 19.1586V24.2196C70.4445 24.3124 70.4076 24.4015 70.342 24.4671C70.2763 24.5327 70.1873 24.5696 70.0945 24.5696Z" fill="#DFEAEF"/>
</svg>
