<svg width="140" height="106" viewBox="0 0 140 106" fill="none" xmlns="http://www.w3.org/2000/svg">
<path d="M60.5361 21.3986V53.7876H45.6891V21.3986" fill="#FFBC0E"/>
<path d="M60.5501 54.1376H45.6891C45.5962 54.1376 45.5072 54.1007 45.4416 54.0351C45.3759 53.9695 45.3391 53.8804 45.3391 53.7876V21.3986C45.3391 21.3058 45.3759 21.2168 45.4416 21.1511C45.5072 21.0855 45.5962 21.0486 45.6891 21.0486C45.7819 21.0486 45.8709 21.0855 45.9365 21.1511C46.0022 21.2168 46.0391 21.3058 46.0391 21.3986V53.4376H60.2001V21.3986C60.2001 21.3058 60.2369 21.2168 60.3026 21.1511C60.3682 21.0855 60.4572 21.0486 60.5501 21.0486C60.6429 21.0486 60.7319 21.0855 60.7975 21.1511C60.8632 21.2168 60.9001 21.3058 60.9001 21.3986V53.7876C60.9001 53.8804 60.8632 53.9695 60.7975 54.0351C60.7319 54.1007 60.6429 54.1376 60.5501 54.1376Z" fill="#093F68"/>
<path d="M49.0561 50.8196C49.5548 50.8196 49.9591 50.4153 49.9591 49.9166C49.9591 49.4179 49.5548 49.0136 49.0561 49.0136C48.5573 49.0136 48.153 49.4179 48.153 49.9166C48.153 50.4153 48.5573 50.8196 49.0561 50.8196Z" fill="#093F68"/>
<path d="M69.531 41.2086C69.531 41.2086 65.7615 41.4921 64.078 41.7721C62.3945 42.0521 59.878 45.7026 56.3115 46.0771C52.745 46.4516 49.854 46.5426 48.825 45.6081C47.796 44.6736 48.1705 42.8081 48.1705 42.8081H43.9285C41.433 42.8081 41.244 40.0711 42.8785 39.2591C42.8785 39.2591 40.0785 38.8741 39.837 36.9071C39.5535 34.6776 42.252 34.5376 42.252 34.5376C41.7998 33.9267 41.579 33.1751 41.629 32.4166C41.755 31.2301 43.939 30.4216 43.939 30.4216C43.939 30.4216 42.6895 29.6096 43.5645 28.0486C44.4395 26.4876 44.9995 26.7396 48.181 26.7396C51.3625 26.7396 54.544 26.4911 56.231 27.1141C57.918 27.7371 63.0945 29.9841 64.5295 30.0471C65.9645 30.1101 69.545 29.9211 69.545 29.9211L69.531 41.2086Z" fill="#FFC9B0"/>
<path d="M52.206 46.6966C50.5015 46.6966 49.2555 46.4726 48.5905 45.8671C47.7365 45.0901 47.7155 43.8126 47.7715 43.1546H43.9215C42.441 43.1546 41.7095 42.2866 41.5205 41.4781C41.4377 41.1187 41.4434 40.7445 41.5373 40.3878C41.6312 40.0312 41.8104 39.7026 42.0595 39.4306C41.1355 39.1541 39.6655 38.4786 39.4695 36.9491C39.4153 36.6416 39.4282 36.326 39.5074 36.024C39.5865 35.7219 39.73 35.4405 39.928 35.1991C40.386 34.7104 40.9903 34.3837 41.65 34.2681C41.3375 33.6899 41.2012 33.0329 41.258 32.3781C41.363 31.3666 42.574 30.6281 43.2915 30.3026C42.896 29.7986 42.63 28.9516 43.232 27.8771C44.093 26.3441 44.828 26.3511 47.0155 26.3791H48.1565C48.8775 26.3791 49.5985 26.3791 50.3055 26.3546C52.6995 26.3126 54.964 26.2706 56.3255 26.7746C56.7385 26.9286 57.358 27.1771 58.0755 27.4746C60.228 28.3391 63.4865 29.6481 64.512 29.6936C65.912 29.7531 69.4575 29.5711 69.4925 29.5676C69.5407 29.565 69.5888 29.5723 69.634 29.5892C69.6792 29.6061 69.7204 29.6321 69.755 29.6656C69.7891 29.6981 69.8163 29.7372 69.835 29.7805C69.8536 29.8238 69.8633 29.8705 69.8635 29.9176V41.2086C69.8637 41.2973 69.8302 41.3829 69.7698 41.4478C69.7094 41.5128 69.6265 41.5524 69.538 41.5586C69.4995 41.5586 65.7685 41.8421 64.12 42.1186C63.539 42.2131 62.7655 42.8361 61.866 43.5536C60.403 44.7261 58.5795 46.1891 56.329 46.4236C54.9601 46.5833 53.5841 46.6745 52.206 46.6966ZM46.256 27.0721C44.758 27.0721 44.429 27.2016 43.862 28.2166C43.162 29.4416 44.0265 30.0576 44.1245 30.1241C44.1814 30.1612 44.2262 30.2141 44.2536 30.2762C44.2809 30.3384 44.2896 30.4071 44.2785 30.4741C44.2711 30.5379 44.2463 30.5984 44.2068 30.649C44.1673 30.6997 44.1146 30.7384 44.0545 30.7611C43.54 30.9536 42.0525 31.6781 41.9545 32.4691C41.9126 33.1362 42.1072 33.7968 42.504 34.3346C42.5439 34.3849 42.5692 34.4452 42.5771 34.509C42.5851 34.5727 42.5753 34.6374 42.5489 34.6959C42.5225 34.7545 42.4806 34.8046 42.4276 34.8409C42.3746 34.8772 42.3127 34.8982 42.2485 34.9016C42.2485 34.9016 41.0375 34.9786 40.4565 35.6751C40.3236 35.8428 40.2283 36.0371 40.177 36.2448C40.1257 36.4525 40.1195 36.6688 40.159 36.8791C40.3725 38.5591 42.875 38.9231 42.8995 38.9266C42.9737 38.9369 43.0426 38.9706 43.0961 39.0229C43.1496 39.0752 43.185 39.1432 43.197 39.2171C43.2048 39.2877 43.1908 39.3591 43.1571 39.4216C43.1233 39.4841 43.0713 39.5349 43.008 39.5671C42.6972 39.727 42.4483 39.9857 42.3007 40.3025C42.1531 40.6193 42.115 40.9763 42.1925 41.3171C42.3605 42.0171 43.0045 42.4546 43.9145 42.4546H48.1565C48.2087 42.4537 48.2604 42.4644 48.3078 42.486C48.3553 42.5075 48.3973 42.5395 48.4309 42.5794C48.4644 42.6193 48.4886 42.6662 48.5017 42.7167C48.5148 42.7672 48.5164 42.8199 48.5065 42.8711C48.5065 42.8711 48.1845 44.5616 49.0525 45.3491C50.0465 46.2521 53.431 46.0281 56.266 45.7271C58.31 45.5136 60.046 44.1241 61.439 43.0076C62.4155 42.2271 63.2555 41.5516 64.015 41.4256C65.415 41.1911 68.215 40.9601 69.174 40.8866V30.2851C68.2185 30.3306 65.674 30.4426 64.4945 30.3936C63.315 30.3446 60.1545 29.0601 57.8235 28.1221C57.1235 27.8351 56.4935 27.5901 56.0735 27.4221C54.8345 26.9636 52.6365 27.0021 50.309 27.0441C49.609 27.0441 48.874 27.0686 48.1495 27.0686H46.998L46.256 27.0721Z" fill="#093F68"/>
<path d="M53.1615 43.1546H48.1705C48.0777 43.1546 47.9887 43.1177 47.923 43.0521C47.8574 42.9865 47.8205 42.8974 47.8205 42.8046C47.8205 42.7118 47.8574 42.6228 47.923 42.5571C47.9887 42.4915 48.0777 42.4546 48.1705 42.4546H53.1615C53.2543 42.4546 53.3434 42.4915 53.409 42.5571C53.4746 42.6228 53.5115 42.7118 53.5115 42.8046C53.5115 42.8974 53.4746 42.9865 53.409 43.0521C53.3434 43.1177 53.2543 43.1546 53.1615 43.1546Z" fill="#093F68"/>
<path d="M50.2285 39.6056H42.8785C42.7857 39.6056 42.6967 39.5687 42.631 39.5031C42.5654 39.4375 42.5285 39.3484 42.5285 39.2556C42.5285 39.1628 42.5654 39.0738 42.631 39.0081C42.6967 38.9425 42.7857 38.9056 42.8785 38.9056H50.2285C50.3213 38.9056 50.4104 38.9425 50.476 39.0081C50.5416 39.0738 50.5785 39.1628 50.5785 39.2556C50.5785 39.3484 50.5416 39.4375 50.476 39.5031C50.4104 39.5687 50.3213 39.6056 50.2285 39.6056Z" fill="#093F68"/>
<path d="M50.4 34.8841H42.2415C42.1487 34.8841 42.0597 34.8472 41.994 34.7816C41.9284 34.716 41.8915 34.6269 41.8915 34.5341C41.8915 34.4413 41.9284 34.3522 41.994 34.2866C42.0597 34.221 42.1487 34.1841 42.2415 34.1841H50.4C50.4928 34.1841 50.5819 34.221 50.6475 34.2866C50.7131 34.3522 50.75 34.4413 50.75 34.5341C50.75 34.6269 50.7131 34.716 50.6475 34.7816C50.5819 34.8472 50.4928 34.8841 50.4 34.8841Z" fill="#093F68"/>
<path d="M49.854 30.7681H43.9285C43.8357 30.7681 43.7467 30.7312 43.681 30.6656C43.6154 30.6 43.5785 30.5109 43.5785 30.4181C43.5785 30.3253 43.6154 30.2363 43.681 30.1706C43.7467 30.105 43.8357 30.0681 43.9285 30.0681H49.854C49.9469 30.0681 50.0359 30.105 50.1015 30.1706C50.1672 30.2363 50.204 30.3253 50.204 30.4181C50.204 30.5109 50.1672 30.6 50.1015 30.6656C50.0359 30.7312 49.9469 30.7681 49.854 30.7681Z" fill="#093F68"/>
<path d="M69.412 41.9331V28.8326H66.206V41.9331H69.412Z" fill="white"/>
<path d="M69.4121 42.2796H66.206C66.1132 42.2796 66.0242 42.2427 65.9586 42.1771C65.8929 42.1114 65.856 42.0224 65.856 41.9296V28.8291C65.856 28.7363 65.8929 28.6472 65.9586 28.5816C66.0242 28.516 66.1132 28.4791 66.206 28.4791H69.4121C69.5049 28.4791 69.5939 28.516 69.6595 28.5816C69.7252 28.6472 69.7621 28.7363 69.7621 28.8291V41.9296C69.7621 42.0224 69.7252 42.1114 69.6595 42.1771C69.5939 42.2427 69.5049 42.2796 69.4121 42.2796ZM66.556 41.5796H69.0621V29.1791H66.556V41.5796Z" fill="#093F68"/>
<path d="M101.798 42.8046H69.412V27.9576H101.798" fill="#F7931E"/>
<path d="M101.798 43.1546H69.412C69.3192 43.1546 69.2302 43.1177 69.1645 43.0521C69.0989 42.9865 69.062 42.8974 69.062 42.8046V27.9576C69.062 27.8648 69.0989 27.7758 69.1645 27.7101C69.2302 27.6445 69.3192 27.6076 69.412 27.6076H101.798C101.89 27.6076 101.979 27.6445 102.045 27.7101C102.111 27.7758 102.148 27.8648 102.148 27.9576C102.148 28.0505 102.111 28.1395 102.045 28.2051C101.979 28.2708 101.89 28.3076 101.798 28.3076H69.762V42.4546H101.798C101.89 42.4546 101.979 42.4915 102.045 42.5571C102.111 42.6228 102.148 42.7118 102.148 42.8046C102.148 42.8974 102.111 42.9865 102.045 43.0521C101.979 43.1177 101.89 43.1546 101.798 43.1546Z" fill="#093F68"/>
<path d="M73.2795 32.2241C73.7782 32.2241 74.1825 31.8198 74.1825 31.3211C74.1825 30.8224 73.7782 30.4181 73.2795 30.4181C72.7808 30.4181 72.3765 30.8224 72.3765 31.3211C72.3765 31.8198 72.7808 32.2241 73.2795 32.2241Z" fill="#093F68"/>
<path d="M93.6005 51.8486C93.6005 51.8486 93.884 48.0826 94.164 46.3956C94.444 44.7086 98.0945 42.1956 98.469 38.6291C98.8435 35.0626 98.9345 32.1716 98 31.1426C97.0655 30.1136 95.2 30.4881 95.2 30.4881V26.2461C95.2 23.7506 92.463 23.5651 91.651 25.1961C91.651 25.1961 91.266 22.3961 89.299 22.1546C87.0695 21.8711 86.9295 24.5731 86.9295 24.5731C86.3195 24.1192 85.5672 23.8982 84.8085 23.9501C83.622 24.0726 82.8135 26.2566 82.8135 26.2566C82.8135 26.2566 82.0015 25.0106 80.4405 25.8821C78.8795 26.7536 79.1315 27.3171 79.1315 30.4986C79.1315 33.6801 78.883 36.8616 79.506 38.5486C80.129 40.2356 82.376 45.4086 82.439 46.8436C82.502 48.2786 82.313 51.8591 82.313 51.8591L93.6005 51.8486Z" fill="#AD7972"/>
<path d="M93.6005 52.1986H82.3095C82.2624 52.1985 82.2158 52.1888 82.1724 52.1701C82.1291 52.1515 82.0901 52.1243 82.0575 52.0901C82.0244 52.0559 81.9987 52.0153 81.9818 51.9707C81.965 51.9262 81.9574 51.8787 81.9595 51.8311C81.9595 51.7961 82.145 48.2506 82.0855 46.8506C82.04 45.8216 80.731 42.5631 79.863 40.4071C79.576 39.7071 79.3275 39.0701 79.163 38.6571C78.659 37.2956 78.6975 35.0311 78.743 32.6371C78.743 31.9371 78.7675 31.2091 78.7675 30.4881C78.7675 30.0646 78.7675 29.6866 78.7675 29.3471C78.7395 27.1596 78.7325 26.4246 80.262 25.5671C81.34 24.9616 82.187 25.2171 82.691 25.6231C83.041 24.9231 83.741 23.6946 84.7665 23.5896C85.4213 23.5328 86.0784 23.6691 86.6565 23.9816C86.7735 23.3189 87.1027 22.712 87.5945 22.2526C87.8367 22.056 88.1182 21.9137 88.4201 21.8352C88.722 21.7567 89.0373 21.7439 89.3445 21.7976C90.8705 21.9901 91.5495 23.4601 91.826 24.3841C92.0981 24.135 92.4266 23.9558 92.7833 23.8619C93.14 23.768 93.5141 23.7623 93.8735 23.8451C94.682 24.0376 95.55 24.7691 95.55 26.2461V30.0961C96.208 30.0436 97.4855 30.0611 98.2625 30.9151C99.2845 32.0386 99.225 34.8281 98.819 38.6746C98.5845 40.9216 97.1215 42.7451 95.949 44.2116C95.228 45.1076 94.6085 45.8846 94.5105 46.4621C94.2375 48.1106 93.9575 51.8451 93.954 51.8801C93.9461 51.968 93.9053 52.0496 93.8397 52.1087C93.7742 52.1677 93.6887 52.1999 93.6005 52.1986ZM82.677 51.4986H93.2785C93.352 50.5431 93.583 47.7501 93.8175 46.3396C93.9435 45.5801 94.619 44.7401 95.3995 43.7636C96.516 42.3636 97.9055 40.6381 98.119 38.5941C98.42 35.7556 98.644 32.3746 97.741 31.3806C96.95 30.5091 95.291 30.8276 95.263 30.8311C95.2118 30.841 95.1591 30.8394 95.1086 30.8263C95.0581 30.8132 95.0112 30.789 94.9713 30.7555C94.9314 30.7219 94.8995 30.6799 94.8779 30.6324C94.8563 30.585 94.8456 30.5333 94.8465 30.4811V26.2461C94.8465 25.3361 94.4195 24.6956 93.709 24.5276C93.3682 24.4495 93.011 24.4872 92.694 24.6349C92.3771 24.7827 92.1184 25.0319 91.959 25.3431C91.9258 25.4096 91.8722 25.4637 91.8061 25.4977C91.7401 25.5316 91.6649 25.5437 91.5915 25.5321C91.5177 25.5201 91.4496 25.4847 91.3973 25.4312C91.345 25.3776 91.3113 25.3088 91.301 25.2346C91.301 25.2101 90.9265 22.7041 89.25 22.4906C89.0403 22.4514 88.8246 22.4577 88.6175 22.509C88.4104 22.5603 88.2167 22.6555 88.0495 22.7881C87.3495 23.3691 87.276 24.5696 87.276 24.5801C87.2726 24.6444 87.2516 24.7066 87.2151 24.7597C87.1787 24.8128 87.1283 24.8548 87.0695 24.8811C87.0124 24.9052 86.9499 24.9137 86.8884 24.9057C86.8269 24.8977 86.7686 24.8735 86.7195 24.8356C86.1806 24.4409 85.5209 24.2466 84.854 24.2861C84.063 24.3701 83.3385 25.8541 83.146 26.3686C83.1233 26.429 83.0844 26.4819 83.0335 26.5216C82.9826 26.5612 82.9218 26.586 82.8577 26.5933C82.7936 26.6005 82.7288 26.5899 82.6703 26.5626C82.6119 26.5353 82.5621 26.4924 82.5265 26.4386C82.46 26.3406 81.8265 25.4936 80.619 26.1761C79.45 26.8306 79.4535 27.1666 79.4815 29.3261C79.4815 29.6761 79.4815 30.0471 79.4815 30.4741C79.4815 31.2021 79.4815 31.9266 79.457 32.6371C79.415 34.9646 79.3765 37.1626 79.835 38.4016C79.982 38.8041 80.2305 39.4201 80.5175 40.1306C81.4555 42.4651 82.7365 45.6571 82.789 46.8051C82.8415 47.9531 82.7225 50.5431 82.677 51.4986Z" fill="#093F68"/>
<path d="M95.2001 35.8291C95.1072 35.8291 95.0182 35.7922 94.9526 35.7266C94.8869 35.661 94.8501 35.5719 94.8501 35.4791V30.4881C94.8501 30.3953 94.8869 30.3063 94.9526 30.2406C95.0182 30.175 95.1072 30.1381 95.2001 30.1381C95.2929 30.1381 95.3819 30.175 95.4476 30.2406C95.5132 30.3063 95.5501 30.3953 95.5501 30.4881V35.4791C95.5501 35.5719 95.5132 35.661 95.4476 35.7266C95.3819 35.7922 95.2929 35.8291 95.2001 35.8291Z" fill="#093F68"/>
<path d="M91.6476 32.8961C91.5547 32.8961 91.4657 32.8592 91.4001 32.7936C91.3344 32.7279 91.2976 32.6389 91.2976 32.5461V25.1961C91.2976 25.1033 91.3344 25.0143 91.4001 24.9486C91.4657 24.883 91.5547 24.8461 91.6476 24.8461C91.7404 24.8461 91.8294 24.883 91.8951 24.9486C91.9607 25.0143 91.9976 25.1033 91.9976 25.1961V32.5461C91.9976 32.6389 91.9607 32.7279 91.8951 32.7936C91.8294 32.8592 91.7404 32.8961 91.6476 32.8961Z" fill="#093F68"/>
<path d="M86.9261 33.0851C86.8333 33.0851 86.7443 33.0482 86.6786 32.9826C86.613 32.917 86.5761 32.8279 86.5761 32.7351V24.5626C86.5761 24.4698 86.613 24.3808 86.6786 24.3151C86.7443 24.2495 86.8333 24.2126 86.9261 24.2126C87.0189 24.2126 87.108 24.2495 87.1736 24.3151C87.2392 24.3808 87.2761 24.4698 87.2761 24.5626V32.7351C87.2761 32.8279 87.2392 32.917 87.1736 32.9826C87.108 33.0482 87.0189 33.0851 86.9261 33.0851Z" fill="#093F68"/>
<path d="M82.81 32.5216C82.7171 32.5216 82.6281 32.4847 82.5625 32.4191C82.4968 32.3535 82.46 32.2644 82.46 32.1716V26.2461C82.46 26.1533 82.4968 26.0643 82.5625 25.9986C82.6281 25.933 82.7171 25.8961 82.81 25.8961C82.9028 25.8961 82.9918 25.933 83.0575 25.9986C83.1231 26.0643 83.16 26.1533 83.16 26.2461V32.1716C83.16 32.2644 83.1231 32.3535 83.0575 32.4191C82.9918 32.4847 82.9028 32.5216 82.81 32.5216Z" fill="#093F68"/>
<path d="M94.3215 48.5271H81.221V51.7331H94.3215V48.5271Z" fill="#093F68"/>
<path d="M94.3215 52.0796H81.221C81.1282 52.0796 81.0392 52.0427 80.9735 51.9771C80.9079 51.9114 80.871 51.8224 80.871 51.7296V48.5271C80.871 48.4343 80.9079 48.3452 80.9735 48.2796C81.0392 48.214 81.1282 48.1771 81.221 48.1771H94.3215C94.4143 48.1771 94.5033 48.214 94.569 48.2796C94.6346 48.3452 94.6715 48.4343 94.6715 48.5271V51.7296C94.6715 51.8224 94.6346 51.9114 94.569 51.9771C94.5033 52.0427 94.4143 52.0796 94.3215 52.0796ZM81.571 51.3796H93.9715V48.8771H81.571V51.3796Z" fill="#093F68"/>
<path d="M95.1965 84.1186V51.7296H80.3495V84.1186" fill="#F56132"/>
<path d="M95.2 84.4686C95.1072 84.4686 95.0182 84.4317 94.9525 84.3661C94.8869 84.3005 94.85 84.2114 94.85 84.1186V52.0796H80.6995V84.1186C80.6995 84.2114 80.6626 84.3005 80.597 84.3661C80.5314 84.4317 80.4423 84.4686 80.3495 84.4686C80.2567 84.4686 80.1677 84.4317 80.102 84.3661C80.0364 84.3005 79.9995 84.2114 79.9995 84.1186V51.7296C79.9995 51.6368 80.0364 51.5478 80.102 51.4821C80.1677 51.4165 80.2567 51.3796 80.3495 51.3796H95.2C95.2928 51.3796 95.3819 51.4165 95.4475 51.4821C95.5131 51.5478 95.55 51.6368 95.55 51.7296V84.1186C95.55 84.2114 95.5131 84.3005 95.4475 84.3661C95.3819 84.4317 95.2928 84.4686 95.2 84.4686Z" fill="#093F68"/>
<path d="M83.7131 56.5036C84.2118 56.5036 84.6161 56.0993 84.6161 55.6006C84.6161 55.1019 84.2118 54.6976 83.7131 54.6976C83.2144 54.6976 82.8101 55.1019 82.8101 55.6006C82.8101 56.0993 83.2144 56.5036 83.7131 56.5036Z" fill="#093F68"/>
<path d="M70.469 75.9111C70.469 75.9111 74.2385 76.1911 75.922 76.4746C77.6055 76.7581 80.122 80.4051 83.6885 80.7796C87.255 81.1541 90.146 81.2451 91.175 80.3106C92.204 79.3761 91.8295 77.5106 91.8295 77.5106H96.0715C98.567 77.5106 98.756 74.7701 97.1215 73.9616C97.1215 73.9616 99.9215 73.5766 100.163 71.6096C100.447 69.3801 97.748 69.2401 97.748 69.2401C98.2003 68.6292 98.4211 67.8776 98.371 67.1191C98.245 65.9326 96.061 65.1206 96.061 65.1206C96.061 65.1206 97.3105 64.3121 96.4355 62.7511C95.5605 61.1901 95.0005 61.4421 91.819 61.4421C88.6375 61.4421 85.456 61.1936 83.769 61.8166C82.082 62.4396 76.9055 64.6866 75.4705 64.7496C74.0355 64.8126 70.455 64.6236 70.455 64.6236L70.469 75.9111Z" fill="#FFC9B0"/>
<path d="M87.7941 81.3991C86.4102 81.3775 85.0283 81.2863 83.6536 81.1261C81.4031 80.8881 79.5796 79.4286 78.1166 78.2561C77.2171 77.5351 76.4436 76.9156 75.8626 76.8176C74.2141 76.5446 70.4831 76.2646 70.4446 76.2611C70.356 76.2549 70.2732 76.2153 70.2128 76.1503C70.1523 76.0853 70.1188 75.9998 70.1191 75.9111V64.6201C70.1188 64.5724 70.1282 64.5251 70.1469 64.4811C70.1656 64.4372 70.193 64.3975 70.2276 64.3646C70.2621 64.3321 70.3028 64.307 70.3474 64.2908C70.3919 64.2745 70.4392 64.2675 70.4866 64.2701C70.5251 64.2701 74.0671 64.4556 75.4706 64.3961C76.4961 64.3506 79.7546 63.0416 81.9071 62.1771C82.6281 61.8866 83.2476 61.6381 83.6571 61.4771C85.0221 60.9731 87.2831 61.0116 89.6771 61.0571C90.3771 61.0571 91.1051 61.0816 91.8261 61.0816C92.2531 61.0816 92.6311 61.0816 92.9671 61.0816C95.1546 61.0571 95.8896 61.0501 96.7471 62.5796C97.3526 63.6576 97.0971 64.5046 96.6911 65.0086C97.4086 65.3586 98.6196 66.0586 98.7246 67.0806C98.7822 67.7354 98.6459 68.3927 98.3326 68.9706C98.9955 69.09 99.6027 69.4187 100.065 69.9086C100.262 70.1504 100.406 70.4318 100.485 70.7337C100.564 71.0357 100.577 71.3511 100.524 71.6586C100.328 73.1846 98.8611 73.8601 97.9336 74.1401C98.1827 74.4121 98.3619 74.7406 98.4558 75.0973C98.5497 75.454 98.5554 75.8282 98.4726 76.1876C98.2836 76.9961 97.5521 77.8641 96.0716 77.8641H92.2216C92.2776 78.5221 92.2566 79.7996 91.4026 80.5766C90.7446 81.1716 89.4986 81.3991 87.7941 81.3991ZM70.8191 75.5891C71.7746 75.6626 74.5676 75.8936 75.9781 76.1281C76.7376 76.2541 77.5776 76.9296 78.5541 77.7101C79.9541 78.8266 81.6831 80.2161 83.7271 80.4296C86.5621 80.7271 89.9466 80.9546 90.9406 80.0516C91.8086 79.2606 91.4901 77.6016 91.4866 77.5736C91.4767 77.5224 91.4783 77.4697 91.4914 77.4192C91.5045 77.3687 91.5287 77.3218 91.5622 77.2819C91.5958 77.242 91.6378 77.21 91.6853 77.1885C91.7328 77.1669 91.7844 77.1562 91.8366 77.1571H96.0786C96.9886 77.1571 97.6326 76.7301 97.8006 76.0196C97.8781 75.6788 97.84 75.3218 97.6924 75.005C97.5448 74.6882 97.2959 74.4295 96.9851 74.2696C96.919 74.2358 96.8653 74.1819 96.8318 74.1157C96.7984 74.0494 96.7869 73.9742 96.7989 73.901C96.811 73.8277 96.8461 73.7602 96.899 73.7082C96.952 73.6562 97.0201 73.6224 97.0936 73.6116C97.1181 73.6116 99.6206 73.2371 99.8341 71.5606C99.8735 71.3509 99.8673 71.1351 99.816 70.928C99.7647 70.7208 99.6694 70.5272 99.5366 70.3601C98.9556 69.6601 97.7586 69.5866 97.7446 69.5866C97.6801 69.583 97.6179 69.5617 97.5648 69.525C97.5118 69.4883 97.4699 69.4376 97.4438 69.3786C97.4177 69.3195 97.4085 69.2544 97.4171 69.1904C97.4257 69.1265 97.4518 69.0661 97.4926 69.0161C97.8852 68.4763 98.0782 67.8169 98.0386 67.1506C97.9581 66.3631 96.4706 65.6386 95.9561 65.4461C95.8955 65.4231 95.8425 65.3838 95.803 65.3325C95.7634 65.2813 95.7389 65.22 95.7321 65.1556C95.7255 65.0916 95.7368 65.027 95.7646 64.969C95.7924 64.9109 95.8356 64.8617 95.8896 64.8266C95.9841 64.7601 96.8346 64.1266 96.1486 62.9191C95.4941 61.7501 95.1616 61.7536 92.9986 61.7781C92.6486 61.7781 92.2741 61.7781 91.8471 61.7781C91.1226 61.7781 90.3946 61.7781 89.6876 61.7536C87.3601 61.7116 85.1621 61.6696 83.9231 62.1316C83.5171 62.2786 82.9011 62.5271 82.1731 62.8141C79.8421 63.7521 76.6501 65.0331 75.5021 65.0821C74.3541 65.1311 71.7816 65.0226 70.8226 64.9771L70.8191 75.5891Z" fill="#093F68"/>
<path d="M91.8295 77.8571H86.8385C86.7457 77.8571 86.6566 77.8202 86.591 77.7546C86.5254 77.689 86.4885 77.5999 86.4885 77.5071C86.4885 77.4143 86.5254 77.3253 86.591 77.2596C86.6566 77.194 86.7457 77.1571 86.8385 77.1571H91.8295C91.9224 77.1571 92.0114 77.194 92.077 77.2596C92.1427 77.3253 92.1795 77.4143 92.1795 77.5071C92.1795 77.5999 92.1427 77.689 92.077 77.7546C92.0114 77.8202 91.9224 77.8571 91.8295 77.8571Z" fill="#093F68"/>
<path d="M97.132 74.3081H89.782C89.6892 74.3081 89.6002 74.2712 89.5345 74.2056C89.4689 74.14 89.432 74.051 89.432 73.9581C89.432 73.8653 89.4689 73.7763 89.5345 73.7106C89.6002 73.645 89.6892 73.6081 89.782 73.6081H97.132C97.2249 73.6081 97.3139 73.645 97.3795 73.7106C97.4452 73.7763 97.482 73.8653 97.482 73.9581C97.482 74.051 97.4452 74.14 97.3795 74.2056C97.3139 74.2712 97.2249 74.3081 97.132 74.3081Z" fill="#093F68"/>
<path d="M97.7585 69.5866H89.6C89.5072 69.5866 89.4182 69.5497 89.3525 69.4841C89.2869 69.4185 89.25 69.3294 89.25 69.2366C89.25 69.1438 89.2869 69.0548 89.3525 68.9891C89.4182 68.9235 89.5072 68.8866 89.6 68.8866H97.7725C97.8654 68.8866 97.9544 68.9235 98.02 68.9891C98.0856 69.0548 98.1225 69.1438 98.1225 69.2366C98.1225 69.3294 98.0856 69.4185 98.02 69.4841C97.9544 69.5497 97.8654 69.5866 97.7725 69.5866H97.7585Z" fill="#093F68"/>
<path d="M96.0715 65.4671H90.1461C90.0532 65.4671 89.9642 65.4302 89.8986 65.3646C89.8329 65.299 89.7961 65.2099 89.7961 65.1171C89.7961 65.0243 89.8329 64.9353 89.8986 64.8696C89.9642 64.804 90.0532 64.7671 90.1461 64.7671H96.0715C96.1644 64.7671 96.2534 64.804 96.319 64.8696C96.3847 64.9353 96.4215 65.0243 96.4215 65.1171C96.4215 65.2099 96.3847 65.299 96.319 65.3646C96.2534 65.4302 96.1644 65.4671 96.0715 65.4671Z" fill="#093F68"/>
<path d="M73.794 76.6321V63.5316H70.588V76.6321H73.794Z" fill="white"/>
<path d="M73.794 76.9821H70.588C70.4952 76.9821 70.4061 76.9452 70.3405 76.8796C70.2749 76.814 70.238 76.7249 70.238 76.6321V63.5316C70.238 63.4388 70.2749 63.3498 70.3405 63.2841C70.4061 63.2185 70.4952 63.1816 70.588 63.1816H73.794C73.8868 63.1816 73.9759 63.2185 74.0415 63.2841C74.1071 63.3498 74.144 63.4388 74.144 63.5316V76.6321C74.144 76.7249 74.1071 76.814 74.0415 76.8796C73.9759 76.9452 73.8868 76.9821 73.794 76.9821ZM70.938 76.2821H73.444V63.8816H70.938V76.2821Z" fill="#093F68"/>
<path d="M38.2025 77.5071H70.588V62.6601H38.2025" fill="#F7931E"/>
<path d="M70.5881 77.8571H38.2025C38.1097 77.8571 38.0207 77.8202 37.9551 77.7546C37.8894 77.689 37.8525 77.5999 37.8525 77.5071C37.8525 77.4143 37.8894 77.3253 37.9551 77.2596C38.0207 77.194 38.1097 77.1571 38.2025 77.1571H70.2381V63.0101H38.2025C38.1097 63.0101 38.0207 62.9733 37.9551 62.9076C37.8894 62.842 37.8525 62.753 37.8525 62.6601C37.8525 62.5673 37.8894 62.4783 37.9551 62.4126C38.0207 62.347 38.1097 62.3101 38.2025 62.3101H70.5881C70.6809 62.3101 70.7699 62.347 70.8355 62.4126C70.9012 62.4783 70.9381 62.5673 70.9381 62.6601V77.5071C70.9381 77.5999 70.9012 77.689 70.8355 77.7546C70.7699 77.8202 70.6809 77.8571 70.5881 77.8571Z" fill="#093F68"/>
<path d="M66.7205 66.9266C67.2192 66.9266 67.6235 66.5223 67.6235 66.0236C67.6235 65.5249 67.2192 65.1206 66.7205 65.1206C66.2218 65.1206 65.8175 65.5249 65.8175 66.0236C65.8175 66.5223 66.2218 66.9266 66.7205 66.9266Z" fill="#093F68"/>
<path d="M58.9435 54.6661C58.9435 54.6661 59.2235 57.4346 59.5035 59.1216C59.7835 60.8086 63.434 63.3216 63.8085 66.8881C64.183 70.4546 64.2775 73.3456 63.343 74.3746C62.4085 75.4036 60.543 75.0291 60.543 75.0291V79.2711C60.543 81.7666 57.806 81.9521 56.994 80.3211C56.994 80.3211 56.609 83.1211 54.6455 83.3626C52.416 83.6461 52.276 80.9441 52.276 80.9441C51.6655 81.3972 50.9136 81.6181 50.155 81.5671C48.9685 81.4446 48.1565 79.2606 48.1565 79.2606C48.1565 79.2606 47.3445 80.5066 45.787 79.6351C44.2295 78.7636 44.478 78.2001 44.478 75.0186C44.478 71.8371 44.226 68.6556 44.849 66.9686C45.472 65.2816 47.719 60.1086 47.782 58.6736C47.845 57.2386 47.6595 54.6556 47.6595 54.6556L58.9435 54.6661Z" fill="#E28362"/>
<path d="M54.3166 83.7441C53.8155 83.7535 53.3277 83.5834 52.9411 83.2646C52.4506 82.8037 52.1206 82.1977 51.9996 81.5356C51.4208 81.8464 50.7642 81.9826 50.1096 81.9276C49.0981 81.8226 48.3771 80.6116 48.0376 79.8941C47.5301 80.2861 46.6866 80.5556 45.6085 79.9501C44.0755 79.0926 44.086 78.3576 44.1105 76.1701C44.1105 75.8201 44.1105 75.4701 44.1105 75.0291C44.1105 74.3081 44.1105 73.5836 44.0825 72.8801C44.0405 70.4861 43.9986 68.2216 44.5061 66.8601C44.6601 66.4436 44.9086 65.8101 45.2061 65.1101C46.0741 62.9541 47.3831 59.6991 47.4251 58.6701C47.4881 57.2701 47.3025 54.7186 47.3025 54.6941C47.299 54.6465 47.3052 54.5986 47.3209 54.5534C47.3365 54.5083 47.3613 54.4668 47.3936 54.4316C47.4266 54.396 47.4667 54.3676 47.5113 54.3484C47.5559 54.3291 47.604 54.3193 47.6525 54.3196H58.9436C59.0306 54.3192 59.1147 54.3512 59.1794 54.4095C59.2442 54.4677 59.2849 54.548 59.2936 54.6346C59.2936 54.6626 59.5771 57.4136 59.8536 59.0656C59.9481 59.6431 60.5711 60.4201 61.2886 61.3161C62.4646 62.7826 63.9241 64.6061 64.1621 66.8531C64.5646 70.7031 64.6241 73.5031 63.6021 74.6126C62.8286 75.4666 61.5511 75.4876 60.8896 75.4316V79.2816C60.8896 80.7586 60.0251 81.4901 59.2131 81.6826C58.8536 81.7652 58.4795 81.7593 58.1229 81.6654C57.7663 81.5715 57.4377 81.3925 57.1656 81.1436C56.8891 82.0676 56.2136 83.5376 54.6841 83.7301C54.562 83.7435 54.4392 83.7482 54.3166 83.7441ZM52.2656 80.5941C52.3162 80.5945 52.3662 80.6052 52.4126 80.6256C52.4707 80.6524 52.5203 80.6947 52.5561 80.7477C52.5919 80.8008 52.6125 80.8627 52.6156 80.9266C52.6156 80.9266 52.6926 82.1376 53.3926 82.7186C53.5595 82.8516 53.7532 82.9471 53.9603 82.9984C54.1675 83.0497 54.3833 83.0558 54.5931 83.0161C56.2696 82.8026 56.6371 80.2966 56.6406 80.2721C56.6503 80.1975 56.6838 80.128 56.7361 80.074C56.7884 80.0199 56.8567 79.9841 56.931 79.972C57.0052 79.9598 57.0814 79.9718 57.1482 80.0064C57.2151 80.0409 57.269 80.096 57.3021 80.1636C57.4614 80.4749 57.7201 80.7241 58.0371 80.8718C58.354 81.0195 58.7112 81.0573 59.0521 80.9791C59.7521 80.8111 60.1861 80.1706 60.1861 79.2606V75.0291C60.1864 74.9774 60.1982 74.9264 60.2206 74.8798C60.243 74.8332 60.2754 74.7922 60.3156 74.7596C60.3555 74.7266 60.4023 74.7029 60.4525 74.6902C60.5028 74.6775 60.5552 74.6761 60.6061 74.6861C60.6061 74.6861 62.2931 75.0046 63.0841 74.1366C63.9871 73.1426 63.7596 69.7616 63.4621 66.9231C63.2451 64.8791 61.8556 63.1466 60.7391 61.7501C59.9586 60.7771 59.2866 59.9371 59.1606 59.1776C58.9366 57.8371 58.7091 55.7931 58.6286 55.0161H48.0271C48.0761 55.7896 48.1741 57.5711 48.1251 58.6981C48.0761 59.8251 46.7916 63.0381 45.8501 65.3586C45.5631 66.0586 45.3146 66.6886 45.1501 67.1086C44.6916 68.3476 44.73 70.5456 44.772 72.8731C44.772 73.5731 44.8001 74.3081 44.8001 75.0361C44.8001 75.4631 44.8001 75.8446 44.8001 76.1841C44.7756 78.3576 44.772 78.6936 45.941 79.3341C47.1625 80.0341 47.7821 79.1696 47.8486 79.0716C47.8843 79.0177 47.9343 78.9748 47.993 78.9476C48.0517 78.9204 48.1168 78.9101 48.1811 78.9176C48.2448 78.925 48.3053 78.9499 48.356 78.9894C48.4066 79.0289 48.4454 79.0815 48.4681 79.1416C48.6606 79.6561 49.3851 81.1401 50.1726 81.2241C50.8397 81.266 51.5002 81.0715 52.0381 80.6746C52.1034 80.6254 52.1839 80.6007 52.2656 80.6046V80.5941Z" fill="#093F68"/>
<path d="M60.55 75.3791C60.4572 75.3791 60.3682 75.3422 60.3026 75.2766C60.2369 75.211 60.2 75.1219 60.2 75.0291V70.0381C60.2 69.9453 60.2369 69.8563 60.3026 69.7906C60.3682 69.725 60.4572 69.6881 60.55 69.6881C60.6429 69.6881 60.7319 69.725 60.7975 69.7906C60.8632 69.8563 60.9 69.9453 60.9 70.0381V75.0291C60.9 75.1219 60.8632 75.211 60.7975 75.2766C60.7319 75.3422 60.6429 75.3791 60.55 75.3791Z" fill="#093F68"/>
<path d="M56.9871 80.6816C56.8942 80.6816 56.8052 80.6447 56.7396 80.5791C56.6739 80.5135 56.6371 80.4244 56.6371 80.3316V72.9816C56.6371 72.8888 56.6739 72.7998 56.7396 72.7341C56.8052 72.6685 56.8942 72.6316 56.9871 72.6316C57.0799 72.6316 57.1689 72.6685 57.2345 72.7341C57.3002 72.7998 57.3371 72.8888 57.3371 72.9816V80.3316C57.3371 80.4244 57.3002 80.5135 57.2345 80.5791C57.1689 80.6447 57.0799 80.6816 56.9871 80.6816Z" fill="#093F68"/>
<path d="M52.269 81.3046C52.1762 81.3046 52.0872 81.2677 52.0215 81.2021C51.9559 81.1365 51.919 81.0474 51.919 80.9546V72.7821C51.919 72.6893 51.9559 72.6003 52.0215 72.5346C52.0872 72.469 52.1762 72.4321 52.269 72.4321C52.3619 72.4321 52.4509 72.469 52.5165 72.5346C52.5822 72.6003 52.619 72.6893 52.619 72.7821V80.9546C52.619 81.0474 52.5822 81.1365 52.5165 81.2021C52.4509 81.2677 52.3619 81.3046 52.269 81.3046Z" fill="#093F68"/>
<path d="M48.1495 79.6211C48.0567 79.6211 47.9677 79.5842 47.902 79.5186C47.8364 79.453 47.7995 79.3639 47.7995 79.2711V73.3456C47.7995 73.2528 47.8364 73.1638 47.902 73.0981C47.9677 73.0325 48.0567 72.9956 48.1495 72.9956C48.2424 72.9956 48.3314 73.0325 48.397 73.0981C48.4627 73.1638 48.4995 73.2528 48.4995 73.3456V79.2711C48.4995 79.3639 48.4627 79.453 48.397 79.5186C48.3314 79.5842 48.2424 79.6211 48.1495 79.6211Z" fill="#093F68"/>
<path d="M59.6645 53.7876H46.564V56.9936H59.6645V53.7876Z" fill="#093F68"/>
<path d="M59.6645 57.3401H46.55C46.4572 57.3401 46.3682 57.3032 46.3025 57.2376C46.2369 57.172 46.2 57.0829 46.2 56.9901V53.7876C46.2 53.6948 46.2369 53.6058 46.3025 53.5401C46.3682 53.4745 46.4572 53.4376 46.55 53.4376H59.6505C59.7433 53.4376 59.8324 53.4745 59.898 53.5401C59.9636 53.6058 60.0005 53.6948 60.0005 53.7876V56.9901C60.0006 57.0806 59.9656 57.1675 59.903 57.2328C59.8404 57.298 59.7549 57.3365 59.6645 57.3401ZM46.914 56.6401H59.3145V54.1376H46.9L46.914 56.6401Z" fill="#093F68"/>
</svg>
