<svg xmlns="http://www.w3.org/2000/svg" viewBox="0 0 599.68 319.26">
  <defs>
    <style>
      .cls-1 {
        fill: #003840;
        stroke: #42b883;
        stroke-width: 1.6px;
      }

      .cls-1, .cls-4, .cls-7 {
        stroke-miterlimit: 10;
      }

      .cls-2 {
        fill: #f7931e;
      }

      .cls-3, .cls-4, .cls-7 {
        fill: #fff;
      }

      .cls-4 {
        font-size: 111.21px;
        stroke-width: 1.56px;
      }

      .cls-4, .cls-7 {
        stroke: #000;
        font-family: NasalizationRg-Regular, Nasalization;
      }

      .cls-5 {
        letter-spacing: -0.05em;
      }

      .cls-6 {
        font-size: 60.66px;
      }

      .cls-7 {
        font-size: 31.98px;
        stroke-width: 0.78px;
        letter-spacing: 0em;
      }
    </style>
  </defs>
  <g id="Capa_2" data-name="Capa 2">
    <g id="Logo_-_1366_768" data-name="Logo - 1366*768">
      <g id="Web-Footer">
        <g id="Logo">
          <ellipse id="Caja" class="cls-1" cx="159.95" cy="159.63" rx="159.15" ry="158.83"/>
          <g>
            <path class="cls-2" d="M94.62,117.81l-13-40.89A2,2,0,0,1,83,74.37h0a2,2,0,0,0,1.35-2.53h0a11.3,11.3,0,0,1,.39-7.54,13.14,13.14,0,0,0,.45-8.85C82.84,47.77,74,43.75,66,47.11A14,14,0,0,0,57.5,62.28a13.17,13.17,0,0,0,5.71,8.59,10.75,10.75,0,0,1,4.38,5.76l.07.25a2,2,0,0,0,2.53,1.36h0a2,2,0,0,1,2.53,1.36l10.73,35.28"/>
            <ellipse class="cls-3" cx="71.9" cy="60.14" rx="8.6" ry="8.58"/>
          </g>
          <g>
            <path class="cls-2" d="M129,127.8l38-39a2.46,2.46,0,0,1,3.49,0h0a2.46,2.46,0,0,0,3.48,0h0a13.62,13.62,0,0,1,8.27-3.92,16,16,0,0,0,9.7-4.62c6.86-6.9,6.06-18.61-2.11-25.15-6.25-5-15.15-5.13-21.1-.33a15.89,15.89,0,0,0-5.88,11,13,13,0,0,1-3.63,8L159,74a2.46,2.46,0,0,0,0,3.47h0a2.46,2.46,0,0,1,0,3.48l-38.2,38.36"/>
            <ellipse class="cls-3" cx="179.28" cy="68.84" rx="10.41" ry="10.38"/>
          </g>
          <g>
            <path class="cls-2" d="M98.63,182.45l18.23,61.28a2.33,2.33,0,0,1-1.59,2.92h0a2.33,2.33,0,0,0-1.59,2.89h0a13,13,0,0,1-.54,8.69,15.13,15.13,0,0,0-.63,10.19c2.59,8.87,12.71,13.62,21.94,9.85,7.05-2.88,11.28-10.21,10-17.37a15.12,15.12,0,0,0-6.46-10,12.36,12.36,0,0,1-5-6.7L133,244a2.34,2.34,0,0,0-2.9-1.59h0a2.34,2.34,0,0,1-2.9-1.6l-17.62-61.2"/>
            <ellipse class="cls-3" cx="127.85" cy="263.19" rx="9.9" ry="9.88"/>
          </g>
          <text class="cls-4" transform="translate(17.41 187.45) scale(1.01 1)">{D<tspan class="cls-5" x="125.78" y="0">-</tspan><tspan x="166.37" y="0">Web&gt;</tspan><tspan class="cls-6" x="514.34" y="0"> </tspan></text>
          <text class="cls-7" transform="translate(149.99 225.58)">Diseña, Desarrolla y Crece</text>
        </g>
      </g>
    </g>
  </g>
</svg>
