<svg width="140" height="106" viewBox="0 0 140 106" fill="none" xmlns="http://www.w3.org/2000/svg">
<g clip-path="url(#clip0)">
<path opacity="0.18" d="M60.1255 8.39293C56.2446 13.8335 53.8616 20.4346 49.005 25.0446C44.2573 29.553 37.7613 31.5732 31.6824 33.9997C22.3827 37.6884 13.083 42.9947 8.21558 51.7358C1.40766 63.948 5.48443 80.2369 15.2991 90.1967C25.1139 100.157 39.4406 104.549 53.401 105.354C67.3614 106.159 81.2783 103.773 95.1552 102.035C107.81 100.45 121.948 98.6803 129.975 88.7568C132.45 85.6262 134.108 81.9293 134.799 77.9988C135.49 74.0683 135.194 70.0275 133.935 66.2403C131.969 60.5204 127.918 55.8053 124.705 50.6803C120.352 43.7201 117.501 35.9401 114.154 28.4395C110.806 20.9388 106.805 13.507 100.683 8.03023C90.237 -1.30209 69.0226 -4.10941 60.1255 8.39293Z" fill="#F7931E"/>
<path d="M13.1447 85.2422C13.9499 85.8806 15.0198 86.0402 16.0463 86.1562C21.7407 86.7946 27.4932 86.6531 33.2202 86.5189C34.2157 86.5522 35.2092 86.4086 36.1545 86.0946C35.9768 85.6521 35.469 85.4562 35.0156 85.3075C31.6159 84.1904 28.2089 83.1023 24.7947 82.0432C21.9656 81.1473 19.1438 80.4437 16.2929 81.5318C15.4188 81.8691 13.3587 82.0613 12.7457 82.5256C11.8571 83.2002 12.3359 84.6038 13.1447 85.2422Z" fill="url(#paint0_linear)"/>
<path d="M44.3551 82.852L43.9671 83.737L33.4922 86.7329L16.7681 84.2303L16.3256 83.6028L44.3551 82.852Z" fill="#F7931E"/>
<path d="M83.0772 79.4861C84.0311 78.8768 85.0721 78.3581 85.812 77.5022C86.1493 77.1104 86.5157 76.6063 87.0307 76.6498C87.214 76.6795 87.3907 76.7408 87.553 76.8312C89.653 77.7923 92.094 77.1939 94.3645 76.7514C94.5322 76.7079 94.7082 76.7079 94.8759 76.7514C95.1173 76.8654 95.3084 77.0642 95.4127 77.3099C96.9687 79.9975 98.9817 82.6054 101.829 83.8386C102.579 84.113 103.315 84.4254 104.034 84.7743C104.205 84.8723 104.397 85.0246 104.368 85.2168C104.351 85.2836 104.319 85.3459 104.276 85.3997C104.233 85.4535 104.179 85.4975 104.118 85.5288C103.243 86.1091 102.13 86.1308 101.082 86.1381L89.0002 86.1852C88.1041 86.1651 87.2078 86.2161 86.3198 86.3376C85.3369 86.5008 84.3902 86.8345 83.4182 87.0086C81.942 87.2697 80.4259 87.1573 78.9279 87.2407C77.7491 87.306 76.574 87.4946 75.3916 87.4728C74.2022 87.5019 73.0338 87.1569 72.0511 86.4863L78.9678 84.0018C79.088 83.9738 79.1946 83.9045 79.2689 83.8059C79.4103 83.5557 79.0948 83.3018 78.8518 83.1458C77.9885 82.5981 79.0222 82.4204 79.4611 82.395C80.0124 82.3442 80.4368 82.3551 80.8249 81.9416C81.1223 81.6297 81.2637 81.1292 81.5503 80.7846C81.9746 80.2297 82.5985 79.9649 83.0772 79.4861Z" fill="white"/>
<path d="M83.0772 79.4861C84.0311 78.8768 85.0721 78.3581 85.812 77.5022C86.1493 77.1104 86.5157 76.6063 87.0307 76.6498C87.214 76.6795 87.3907 76.7408 87.553 76.8312C89.653 77.7923 92.094 77.1939 94.3645 76.7514C94.5322 76.7079 94.7082 76.7079 94.8759 76.7514C95.1173 76.8654 95.3084 77.0642 95.4127 77.3099C96.9687 79.9975 98.9817 82.6054 101.829 83.8386C102.579 84.113 103.315 84.4254 104.034 84.7743C104.205 84.8723 104.397 85.0246 104.368 85.2168C104.351 85.2836 104.319 85.3459 104.276 85.3997C104.233 85.4535 104.179 85.4975 104.118 85.5288C103.243 86.1091 102.13 86.1308 101.082 86.1381L89.0002 86.1852C88.1041 86.1651 87.2078 86.2161 86.3198 86.3376C85.3369 86.5008 84.3902 86.8345 83.4182 87.0086C81.942 87.2697 80.4259 87.1573 78.9279 87.2407C77.7491 87.306 76.574 87.4946 75.3916 87.4728C74.2022 87.5019 73.0338 87.1569 72.0511 86.4863L78.9678 84.0018C79.088 83.9738 79.1946 83.9045 79.2689 83.8059C79.4103 83.5557 79.0948 83.3018 78.8518 83.1458C77.9885 82.5981 79.0222 82.4204 79.4611 82.395C80.0124 82.3442 80.4368 82.3551 80.8249 81.9416C81.1223 81.6297 81.2637 81.1292 81.5503 80.7846C81.9746 80.2297 82.5985 79.9649 83.0772 79.4861Z" fill="url(#paint1_linear)"/>
<path d="M62.4975 76.57C62.9059 76.6985 63.2786 76.9208 63.5856 77.2192C64.2385 77.9446 63.9483 79.1923 63.2229 79.8525C62.4975 80.5126 61.4783 80.7375 60.5063 80.8862C56.0813 81.5717 51.5729 81.2888 47.0863 81.2126C45.8422 81.1945 44.5728 81.1908 43.3904 81.5753C42.9232 81.7747 42.4372 81.9266 41.9396 82.0287C40.5577 82.2064 39.3608 81.1763 38.2037 80.4038C35.0591 78.3073 31.1093 77.8395 27.3227 77.8286C23.5361 77.8177 19.7313 78.1913 16.0027 77.5711C15.3245 77.455 14.4975 77.1394 14.4613 76.4503C14.4737 76.1392 14.5884 75.8409 14.7877 75.6016C15.9084 74.0202 17.7836 73.1316 19.6697 72.7C21.5557 72.2684 23.5071 72.1668 25.4149 71.8295C27.0942 71.5357 28.759 71.0388 30.4637 71.0533C32.6181 71.0533 34.6674 71.902 36.7058 72.5948C41.1422 74.1072 45.7575 75.0327 50.434 75.3477C54.7175 75.627 58.3808 74.9596 62.4975 76.57Z" fill="url(#paint2_linear)"/>
<path d="M55.0803 48.4461C55.156 48.3201 55.1961 48.176 55.1964 48.029C55.2014 47.9313 55.1746 47.8346 55.1202 47.7533C55.046 47.6662 54.9495 47.601 54.8409 47.5647C54.6529 47.4627 54.4419 47.4102 54.2279 47.4124C54.0684 47.4124 53.8652 47.5393 53.9922 47.7098C54.1545 47.8458 54.3337 47.9604 54.5254 48.0507C54.7169 48.173 54.9022 48.305 55.0803 48.4461Z" fill="url(#paint3_linear)"/>
<path d="M33.9747 69.9253C33.7804 69.9459 33.592 70.0038 33.4197 70.0958L26.6445 73.186C26.4073 73.2601 26.2066 73.4206 26.0823 73.6357C26.043 73.8005 26.0569 73.9736 26.1221 74.13C26.1872 74.2864 26.3003 74.4181 26.445 74.5062C26.9397 74.8377 27.5181 75.0225 28.1134 75.0394C31.1202 75.3187 34.1778 74.2487 37.1374 74.8399C38.4939 75.1083 38.7442 72.6637 37.91 71.9165C37.4312 71.4922 36.7276 71.3108 36.1581 71.0424C35.5307 70.7269 34.6928 69.8709 33.9747 69.9253Z" fill="#261A17"/>
<path d="M55.6497 71.1186C56.046 71.2479 56.4258 71.4232 56.7813 71.6409C57.4596 72.1124 57.8042 72.9212 58.1161 73.6865C58.2624 73.9972 58.3591 74.3288 58.4026 74.6694C58.4104 74.9915 58.3476 75.3113 58.2185 75.6065C58.0894 75.9016 57.8972 76.1649 57.6555 76.3778C56.5202 77.4659 54.7901 77.5529 53.2196 77.5783L47.6666 77.6726C45.9952 77.7628 44.3188 77.6667 42.6686 77.3861C42.5364 77.3707 42.4109 77.3193 42.3059 77.2374C42.1805 77.0919 42.11 76.9071 42.1064 76.7151C41.908 75.4107 41.823 74.0916 41.8525 72.7725C41.844 72.5633 41.9011 72.3565 42.0158 72.1813C42.188 72.0161 42.4124 71.916 42.6505 71.8984L45.7661 71.3036C46.4208 71.1998 47.0636 71.0309 47.6848 70.7994C48.8853 70.3061 50.2237 68.888 51.6165 69.0838C53.0092 69.2797 54.344 70.6108 55.6497 71.1186Z" fill="#F7931E"/>
<path d="M55.6497 71.1186C56.046 71.2479 56.4258 71.4232 56.7813 71.6409C57.4596 72.1124 57.8042 72.9212 58.1161 73.6865C58.2624 73.9972 58.3591 74.3288 58.4026 74.6694C58.4104 74.9915 58.3476 75.3113 58.2185 75.6065C58.0894 75.9016 57.8972 76.1649 57.6555 76.3778C56.5202 77.4659 54.7901 77.5529 53.2196 77.5783L47.6666 77.6726C45.9952 77.7628 44.3188 77.6667 42.6686 77.3861C42.5364 77.3707 42.4109 77.3193 42.3059 77.2374C42.1805 77.0919 42.11 76.9071 42.1064 76.7151C41.908 75.4107 41.823 74.0916 41.8525 72.7725C41.844 72.5633 41.9011 72.3565 42.0158 72.1813C42.188 72.0161 42.4124 71.916 42.6505 71.8984L45.7661 71.3036C46.4208 71.1998 47.0636 71.0309 47.6848 70.7994C48.8853 70.3061 50.2237 68.888 51.6165 69.0838C53.0092 69.2797 54.344 70.6108 55.6497 71.1186Z" fill="url(#paint4_linear)"/>
<path d="M50.7061 45.6787C50.7061 45.6787 47.079 45.2725 45.3961 46.4984C43.7132 47.7243 37.0213 57.4593 36.7493 59.3634C36.4773 61.2676 39.5421 62.0039 43.3178 62.7184C45.7551 63.1533 48.2321 63.3248 50.7061 63.2298L55.3704 54.4343C55.3704 54.4343 56.7487 51.0757 56.1865 49.9005C55.8036 49.1531 55.2508 48.5059 54.5725 48.0109L50.7061 45.6787Z" fill="white"/>
<path d="M54.1082 48.8161C54.1124 49.1374 54.031 49.4541 53.8725 49.7337C52.9454 51.8635 51.9029 53.9413 50.7496 55.9577C50.6389 56.1692 50.4858 56.3556 50.2999 56.5053C50.2061 56.5786 50.0929 56.6228 49.9743 56.6324C49.8557 56.6421 49.7369 56.6168 49.6325 56.5597C49.4884 56.4404 49.3845 56.2796 49.3351 56.0991L48.305 53.3934C47.535 54.7491 46.9842 56.218 46.6729 57.7458C46.6449 57.8294 46.6353 57.918 46.6447 58.0056C46.6541 58.0932 46.6822 58.1778 46.7273 58.2536C46.826 58.3472 46.9542 58.4036 47.09 58.4131C48.4043 58.6567 49.758 58.5795 51.0362 58.1883C51.3299 58.1192 51.6025 57.9798 51.8305 57.7821C52.0294 57.5603 52.1801 57.2997 52.273 57.0167L55.0839 50.0601C55.2943 49.5451 55.4938 48.9357 55.2072 48.4606C55.0549 48.214 54.4202 47.7352 54.1191 47.8476C53.6657 47.971 54.0647 48.4207 54.1082 48.8161Z" fill="url(#paint5_linear)"/>
<path d="M37.5001 58.7251C39.7118 58.6904 41.8613 57.9874 43.6661 56.7084C44.0636 56.4566 44.4075 56.1288 44.678 55.7436C45.3381 54.6991 45.0008 53.3353 44.6417 52.1529C44.2827 50.9705 43.5246 52.4431 43.1909 52.8783C42.636 53.6037 42.2842 54.4706 41.7401 55.2105C41.1801 55.962 40.5324 56.6439 39.8105 57.2416C39.3173 57.6442 38.1675 58.7178 37.5001 58.7251Z" fill="url(#paint6_linear)"/>
<path d="M56.3425 67.7164C56.198 68.461 55.7751 69.1225 55.16 69.5662C54.5505 70.0035 53.8874 70.3606 53.187 70.6289C49.7848 72.1015 46.2956 73.5995 42.5852 73.7446C42.3647 73.7736 42.1407 73.7343 41.9432 73.6321C41.7397 73.4627 41.5981 73.2305 41.5406 72.972C41.2323 72.1015 40.7318 70.9808 40.01 70.3315C39.7356 70.0706 39.3918 69.8943 39.0198 69.8237C37.6017 69.588 35.9985 69.2362 35.2767 67.9921C34.951 67.3351 34.8154 66.6002 34.885 65.8703C34.9468 64.6769 35.1688 63.4972 35.5451 62.363C35.7304 61.8521 35.8676 61.3252 35.955 60.7888C36.0348 60.1831 36.1109 59.5738 36.1907 58.9753C36.1903 58.9559 36.1943 58.9367 36.2025 58.9191C36.2107 58.9015 36.2228 58.886 36.2379 58.8738C36.265 58.8647 36.2943 58.8647 36.3213 58.8738C38.7115 58.9427 41.0364 58.3551 42.9044 56.8028C43.6149 56.1883 44.2747 55.5175 44.8775 54.797C45.862 53.7777 46.7072 52.6325 47.391 51.3912C47.863 50.4767 48.0928 49.4565 48.0583 48.428C48.0148 47.7026 47.8697 46.3315 47.2894 45.8383C47.0904 45.6733 46.8502 45.5656 46.5947 45.5266C46.3391 45.4876 46.0778 45.5189 45.8386 45.617C45.9583 45.2035 46.4117 45.0041 46.8179 44.8553C47.0816 44.7399 47.3645 44.6747 47.6521 44.6631C47.9416 44.7026 48.2176 44.8103 48.4572 44.9774C48.6968 45.1446 48.8933 45.3663 49.0304 45.6243C50.532 47.9492 49.705 51.2389 48.7692 53.6219C48.3775 54.6084 47.8734 55.6095 47.9568 56.6685C47.9568 56.7955 48.7983 57.111 48.9216 57.1618C49.2877 57.3255 49.6789 57.426 50.0786 57.4592C50.4188 57.4953 50.7612 57.4158 51.0507 57.2335C51.3402 57.0513 51.5599 56.7769 51.6745 56.4546L52.4398 54.7353C52.6574 54.2493 52.8714 53.7633 53.0818 53.2845C53.7056 51.8337 54.2605 50.3321 54.8155 48.8451C54.9556 48.5583 55.0062 48.236 54.9606 47.9202C54.888 47.6155 54.5326 47.358 54.2533 47.4994C54.6668 47.2891 55.4974 48.0217 55.7041 48.3046C56.1539 48.8995 55.9725 49.4979 55.7259 50.1508C54.2025 54.253 51.4823 58.0251 51.1812 62.3884C51.1387 62.6348 51.1742 62.8884 51.2828 63.1138C51.4453 63.3303 51.6748 63.4871 51.9356 63.5599C52.9621 63.9697 54.0393 64.2853 54.9316 64.9527C55.8238 65.62 56.502 66.6247 56.3425 67.7164Z" fill="#F7931E"/>
<path d="M41.2214 69.0258L41.8961 68.6014C41.1141 68.8758 40.4658 69.4372 40.0826 70.1719L40.0028 70.3315C39.7284 70.0706 39.3846 69.8943 39.0126 69.8237C37.5944 69.588 35.9913 69.2362 35.2695 67.9921C34.9463 67.3344 34.8131 66.5996 34.885 65.8703C34.9468 64.6769 35.1688 63.4972 35.5452 62.363C35.7304 61.8521 35.8676 61.3252 35.955 60.7888C36.0348 60.1831 36.111 59.5738 36.1908 58.9753C36.1904 58.9572 36.1938 58.9391 36.2007 58.9223C36.2075 58.9054 36.2177 58.8902 36.2307 58.8774L37.3841 59.0624C37.5029 59.2145 37.5877 59.3904 37.6328 59.5781C37.6778 59.7658 37.6821 59.961 37.6452 60.1505C37.4965 61.5215 36.5571 62.7547 36.626 64.1402C36.6231 64.3191 36.6708 64.4952 36.7638 64.648C36.9207 64.8214 37.1293 64.9397 37.3587 64.9853C40.5976 65.9646 44.0977 65.8667 47.391 65.0941C45.384 66.4748 43.3275 67.7854 41.2214 69.0258Z" fill="url(#paint7_linear)"/>
<path d="M46.5785 72.5295C46.6194 72.6219 46.6365 72.7231 46.6283 72.8238C46.62 72.9246 46.5867 73.0216 46.5314 73.1062C46.4297 73.1921 46.3017 73.2407 46.1687 73.244C45.6392 73.3092 45.1045 73.3202 44.5728 73.2766C44.4797 73.2767 44.3892 73.2461 44.3153 73.1896C44.2538 73.1214 44.2168 73.0346 44.2101 72.943C43.7966 70.6749 43.4689 68.3886 43.2271 66.0843C43.1038 64.9188 43.0059 63.7533 42.9334 62.5878C42.8753 61.6448 43.122 60.5458 41.9214 60.4116C40.4162 60.2665 38.7986 60.321 37.5255 59.5049C39.1395 59.4251 40.8732 59.2981 42.1209 58.2753C42.4618 57.996 42.781 57.6442 43.209 57.5717C43.5478 57.5305 43.8892 57.6243 44.1593 57.8328C45.3635 58.696 45.2873 60.1686 45.4142 61.4997C45.6391 63.8428 45.679 66.2148 45.9184 68.5434C46.0375 69.8869 46.2581 71.2194 46.5785 72.5295Z" fill="url(#paint8_linear)"/>
<path d="M90.5634 78.6192C92.8109 78.6192 94.6329 76.7973 94.6329 74.5497C94.6329 72.3022 92.8109 70.4802 90.5634 70.4802C88.3159 70.4802 86.4939 72.3022 86.4939 74.5497C86.4939 76.7973 88.3159 78.6192 90.5634 78.6192Z" fill="#F7931E"/>
<path d="M91.3288 23.6627H89.4935V70.4802H91.3288V23.6627Z" fill="#F7931E"/>
<path d="M86.6607 24.4642H94.6148L90.5126 16.7713L86.6607 24.4642Z" fill="#F7931E"/>
<path d="M94.4334 38.5044H90.6395V36.5857H94.4334C95.4114 36.5848 96.3491 36.1958 97.0406 35.5043C97.7322 34.8127 98.1211 33.8751 98.1221 32.8971V29.9302H100.041V32.8971C100.039 34.3836 99.4474 35.8088 98.3963 36.86C97.3451 37.9111 95.92 38.5025 94.4334 38.5044Z" fill="#F7931E"/>
<path d="M102.141 26.2306H96.022V32.3494H102.141V26.2306Z" fill="#F7931E"/>
<path d="M91.394 52.0368H89.4753V48.6492C89.4753 47.8976 89.177 47.1767 88.6458 46.6449C88.1147 46.1131 87.3942 45.8138 86.6426 45.8129C85.1557 45.8109 83.7302 45.2197 82.6784 44.1686C81.6267 43.1175 81.0345 41.6924 81.0316 40.2055V32.3494H82.9503V40.2055C82.9522 41.1838 83.3419 42.1215 84.0341 42.8129C84.7262 43.5044 85.6642 43.8932 86.6426 43.8942C87.9028 43.8961 89.1108 44.3978 90.0015 45.2892C90.8923 46.1806 91.393 47.389 91.394 48.6492V52.0368Z" fill="#F7931E"/>
<path d="M78.9352 33.6896C78.9352 35.3792 80.3049 36.749 81.9946 36.749C83.6842 36.749 85.0539 35.3792 85.0539 33.6896C85.0539 31.9999 83.6842 30.6302 81.9946 30.6302C80.3049 30.6302 78.9352 31.9999 78.9352 33.6896Z" fill="#F7931E"/>
<path d="M60.441 42.0226C59.8389 42.6719 59.6576 43.4734 59.313 44.275C59.0707 44.9258 58.7173 45.5296 58.2684 46.0595C57.9258 46.4043 57.5477 46.7119 57.1404 46.9771C56.841 47.209 56.5035 47.3869 56.143 47.5031C55.7153 47.5979 55.2679 47.5415 54.8772 47.3435C54.783 47.2898 54.6797 47.2541 54.5725 47.2383C54.5296 47.2275 54.4848 47.2275 54.4419 47.2383C54.3368 47.2914 54.2525 47.3782 54.2025 47.4849C53.979 47.9214 53.7091 48.3324 53.3973 48.7109V48.729C53.2351 48.9183 53.029 49.065 52.7969 49.156C52.5648 49.2471 52.3139 49.2798 52.0662 49.2513C51.8148 49.1744 51.582 49.0464 51.3823 48.8754C51.1826 48.7044 51.0203 48.494 50.9056 48.2575C50.7163 47.9448 50.5502 47.6187 50.4087 47.2818C50.3509 47.1697 50.321 47.0453 50.3216 46.9191C50.3436 46.7784 50.3996 46.6452 50.4848 46.531C51.2102 45.3958 51.9103 44.2605 52.5087 43.0636C53.1471 41.7905 53.7274 40.3651 54.957 39.6469C55.8746 39.1065 56.999 39.0666 58.0653 39.0956C58.9576 39.121 59.9586 39.2335 60.5208 39.9262C60.754 40.2302 60.8736 40.606 60.8591 40.9888C60.8445 41.3716 60.6966 41.7373 60.441 42.0226Z" fill="#F9BBA2"/>
<path d="M54.5725 47.2383C54.5296 47.2276 54.4848 47.2276 54.4419 47.2383C54.3368 47.2914 54.2525 47.3783 54.2025 47.485C53.9791 47.9214 53.7091 48.3324 53.3974 48.7109C53.1698 48.2547 53.0475 47.7534 53.0393 47.2437C53.0312 46.734 53.1374 46.229 53.3502 45.7658C53.4191 45.617 53.5533 45.6497 53.6295 45.7658C53.6692 45.8722 53.696 45.983 53.7093 46.0958C53.8288 46.4079 54.0115 46.692 54.2461 46.93C54.3082 47.0112 54.3815 47.0833 54.4637 47.144L54.5725 47.2383Z" fill="#E2A791"/>
<path d="M43.9525 49.2839C43.9525 49.2839 42.3385 57.9888 42.8644 58.7505L48.9832 59.0261C48.9832 59.0261 48.8962 49.8606 48.5589 48.7217C48.2215 47.5829 46.2811 44.0356 43.9525 49.2839Z" fill="white"/>
<path d="M56.1865 49.9005C56.1865 49.9005 58.2793 54.0934 59.0446 55.8271C59.8099 57.5608 60.8581 59.7551 60.8581 59.7551C60.8581 59.7551 58.7508 62.6568 56.9627 62.7184L53.8144 57.3867L56.1865 49.9005Z" fill="white"/>
<path d="M55.7259 55.098C55.5456 53.827 55.5911 52.5341 55.8601 51.2788C55.2217 54.7789 52.2729 57.5064 51.5766 60.9956C52.418 59.8422 53.0528 58.5981 53.8036 57.3867C54.8917 59.2002 55.5554 60.651 56.7052 62.0401C57.1876 62.6277 57.9783 62.3376 58.3083 61.6992C58.6384 61.0609 58.1524 60.3971 57.7933 59.8313C56.8575 58.3732 56.0088 56.8245 55.7259 55.098Z" fill="url(#paint9_linear)"/>
<path d="M43.4665 58.7795C43.4665 58.7795 44.5547 70.7849 44.9536 71.9601C45.0544 72.3147 45.2581 72.6315 45.539 72.8704C45.8198 73.1092 46.1652 73.2595 46.5314 73.3021C46.9109 73.3166 47.2849 73.2073 47.5969 72.9908C47.909 72.7742 48.1422 72.4621 48.2615 72.1015C48.357 71.7076 48.3803 71.2996 48.3304 70.8974C48.0801 67.2486 47.5796 63.5853 47.9677 59.9474C48.0185 59.4722 48.0584 58.9209 47.7102 58.5909C47.4904 58.4182 47.2237 58.3158 46.9449 58.2971C45.8821 58.1447 44.5365 58.7795 43.4665 58.7795Z" fill="#F9BBA2"/>
<path d="M48.9579 70.7305C48.9822 70.7258 49.0072 70.726 49.0315 70.7309C49.0557 70.7359 49.0788 70.7456 49.0993 70.7595C49.1302 70.7986 49.1457 70.8476 49.1428 70.8974C49.2684 72.5362 49.5108 74.1641 49.8682 75.7684C49.8787 75.8845 49.9242 75.9945 49.9988 76.084C50.0692 76.1455 50.1541 76.1879 50.2455 76.2073C51.2828 76.4975 52.4217 76.2073 53.4662 76.4249C53.898 76.5197 54.3169 76.6658 54.7139 76.8602C55.4901 77.2229 56.2917 77.7234 56.5528 78.5395C56.5782 78.6229 56.5927 78.7281 56.5238 78.7825C56.485 78.8075 56.4394 78.8202 56.3933 78.8188C56.1588 78.8533 55.9205 78.8533 55.686 78.8188C55.375 78.71 55.0576 78.6203 54.7357 78.5504C54.2968 78.5213 53.9015 78.7789 53.4989 78.953C52.9457 79.1603 52.3677 79.2945 51.7797 79.3519C50.532 79.526 49.219 79.6929 48.0438 79.2431C47.7836 79.1535 47.5451 79.0102 47.3438 78.8224C47.1755 78.6434 47.0327 78.442 46.9195 78.2239C46.3028 77.1984 45.7422 76.1402 45.2402 75.0539C45.121 74.7588 44.9854 74.4706 44.8339 74.1907C44.622 73.8711 44.4271 73.5406 44.25 73.2005C44.1413 72.9376 44.0717 72.6602 44.0432 72.3772C43.9756 72.1181 43.9596 71.8482 43.9961 71.5829C44.1593 71.2637 45.1785 71.2202 45.4977 71.1512C46.64 70.9312 47.7961 70.7907 48.9579 70.7305Z" fill="#FC682D"/>
<path d="M62.7732 63.705C63.9713 63.0289 65.1138 62.2588 66.1899 61.4018L68.6381 59.5556C68.8678 59.4135 69.0546 59.2117 69.1785 58.9717C69.3671 58.5074 69.0661 57.9996 68.7759 57.5898C68.6381 57.3903 68.4604 57.1727 68.221 57.1727C68.0814 57.1821 67.9472 57.2298 67.8329 57.3105C66.6448 58.041 65.3798 58.6383 64.0608 59.0914C62.795 59.4976 61.4566 59.6935 60.2234 60.1976C58.74 60.8033 56.9119 62.178 58.5296 63.6941C59.741 64.8475 61.4457 64.4086 62.7732 63.705Z" fill="#F9BBA2"/>
<path d="M64.2639 58.424C64.1902 58.4623 64.1296 58.5216 64.0898 58.5945C64.0617 58.6938 64.072 58.8 64.1188 58.8919C64.5492 60.0608 65.2006 61.1358 66.0375 62.0583C66.0969 62.1362 66.1775 62.1954 66.2696 62.2288C66.3333 62.2378 66.3982 62.2342 66.4604 62.218C66.5227 62.2018 66.5811 62.1734 66.6323 62.1345C67.0173 61.9073 67.3688 61.6277 67.6769 61.3039C68.1666 60.7925 68.5474 60.1686 69.106 59.737C69.9873 59.0551 71.1589 58.9463 72.2578 58.7759C72.7838 58.6961 73.4257 58.4748 73.4838 57.9453C73.52 57.6007 73.2734 57.296 73.1428 56.9696C72.9796 56.5706 72.9832 56.0991 72.7366 55.7437C72.3739 55.2214 71.6485 55.1597 70.9993 55.2141C69.8858 55.3048 68.8738 55.4064 67.9308 56.0193C66.7194 56.8173 65.5007 57.6225 64.2639 58.424Z" fill="#FC682D"/>
<path d="M43.6552 73.0518L41.1634 74.0347C40.9857 74.1036 40.8007 74.1943 40.7282 74.3757C40.7113 74.4624 40.715 74.5518 40.7389 74.6369C40.7629 74.7219 40.8064 74.8001 40.866 74.8653C41.5914 75.8228 43.0422 75.8265 43.9671 76.6063C44.0945 76.6979 44.1952 76.8218 44.2589 76.9652C44.3227 77.1086 44.3471 77.2664 44.3298 77.4224C44.2391 77.8213 43.7531 77.9737 43.3432 78.0281C41.599 78.2547 39.8261 77.9975 38.2183 77.2845C37.1455 76.7675 36.1231 76.1519 35.1643 75.4456C34.642 75.0829 34.0762 74.6296 34.0399 73.9948C34.0073 73.1642 34.9068 72.6492 35.6612 72.2938C37.4747 71.4378 39.0235 70.3025 40.6955 69.2253C41.722 68.5652 41.7147 69.617 42.1173 70.4766C42.5467 71.382 43.0617 72.2443 43.6552 73.0518Z" fill="#3D2D28"/>
<path d="M45.7407 45.7113C45.7802 45.6039 45.8326 45.5016 45.8967 45.4067C45.9832 45.266 46.1152 45.159 46.2708 45.1035C46.4264 45.048 46.5962 45.0472 46.7523 45.1014C46.9083 45.1555 47.0413 45.2613 47.129 45.4012C47.2168 45.5412 47.2542 45.7068 47.235 45.8709C46.8274 45.9544 46.4243 46.0585 46.0273 46.1828C45.9003 46.2264 45.6646 46.3823 45.5884 46.23C45.5122 46.0777 45.7008 45.8165 45.7407 45.7113Z" fill="url(#paint10_linear)"/>
<path d="M78.6776 58.025C78.2179 60.5252 77.1836 62.8843 75.6563 64.9164C75.5128 65.1414 75.3143 65.3261 75.0796 65.4532C74.8826 65.5261 74.6728 65.5582 74.463 65.5475C73.5797 65.5525 72.7001 65.4303 71.8516 65.1848C71.3398 65.0706 70.8685 64.8199 70.4878 64.4594C70.1706 64.0714 69.9494 63.6141 69.8422 63.1246C69.5951 62.2557 69.3941 61.3743 69.2401 60.4841C68.95 58.7794 68.8774 56.9152 69.5267 55.7001C69.9256 54.9747 70.807 54.4306 71.5941 54.7027C71.6548 54.7184 71.7085 54.7542 71.7464 54.8042C71.7683 54.855 71.7762 54.9108 71.7692 54.9657C71.7622 55.0205 71.7405 55.0725 71.7065 55.1161C71.6884 55.1524 71.6666 55.1887 71.6448 55.225C71.2821 55.8742 70.7925 56.4581 70.5894 57.1727C70.3863 57.8872 70.6075 58.7722 71.2459 59.0551C71.2957 59.0798 71.348 59.0992 71.4018 59.1131C72.2469 59.338 72.9578 58.4893 73.4547 57.7675C73.9516 57.0457 74.5428 56.255 75.163 55.5405C75.4931 55.156 75.9465 54.7426 76.4361 54.8659C76.7083 54.9666 76.9427 55.1491 77.1071 55.3882L78.3331 56.839C78.4992 57.0087 78.6234 57.2148 78.6958 57.4411C78.7288 57.635 78.7226 57.8335 78.6776 58.025Z" fill="white"/>
<path d="M78.6777 58.025C78.218 60.5252 77.1837 62.8843 75.6563 64.9164C75.5129 65.1414 75.3144 65.3262 75.0797 65.4532C74.8826 65.5261 74.6729 65.5582 74.4631 65.5475C73.5797 65.5525 72.7002 65.4304 71.8516 65.1848C71.3398 65.0706 70.8685 64.82 70.4878 64.4594C70.1706 64.0715 69.9494 63.6142 69.8422 63.1246C69.5951 62.2557 69.3941 61.3743 69.2402 60.4842C70.2049 62.6422 71.8806 64.1801 73.4983 64.1112C75.1159 64.0423 77.1072 55.4172 77.1072 55.4172L78.3331 56.868C78.4993 57.0377 78.6235 57.2439 78.6958 57.4701C78.725 57.6546 78.7188 57.8429 78.6777 58.025Z" fill="url(#paint11_linear)"/>
<path d="M70.5894 57.1908C70.3899 57.8872 70.6076 58.7904 71.2459 59.0733C71.0791 59.251 70.8324 59.2147 70.4734 58.794C70.2747 58.5249 70.1497 58.2086 70.1107 57.8764C69.9791 57.3215 69.9704 56.7447 70.0853 56.1862C70.1464 55.9069 70.2753 55.647 70.4606 55.4294C70.646 55.2118 70.882 55.0432 71.148 54.9385C71.3221 54.8804 71.5651 54.8913 71.6267 55.0654C71.6358 55.1146 71.6358 55.165 71.6267 55.2141V55.2431C71.2858 55.8924 70.7925 56.4763 70.5894 57.1908Z" fill="url(#paint12_linear)"/>
<path d="M70.9557 55.3266C70.9873 55.3259 71.0186 55.3334 71.0464 55.3483C71.0624 55.3656 71.074 55.3865 71.0803 55.4092C71.0866 55.4319 71.0874 55.4558 71.0827 55.4789C71.0407 55.7422 70.9132 55.9843 70.72 56.168C70.5423 56.3603 70.3355 56.5307 70.1505 56.7084C69.9656 56.8862 69.8169 57.1074 69.6283 57.2888C69.4487 57.4835 69.2082 57.6114 68.9464 57.6515C68.9087 57.6642 68.8679 57.6642 68.8303 57.6515C68.8089 57.6362 68.7908 57.6167 68.7771 57.5943C68.7634 57.5719 68.7544 57.5469 68.7505 57.5209C68.6163 57.0167 68.5365 56.2188 69.037 55.9178C69.6046 55.5364 70.272 55.3307 70.9557 55.3266Z" fill="#FC682D"/>
<path d="M77.089 61.2205L82.9757 61.05H83.7011V62.0728L75.8703 63.5853C75.8703 63.5853 75.3516 61.5832 77.089 61.2205Z" fill="white"/>
<path d="M75.9538 62.0837C76.0327 62.2306 76.1463 62.3559 76.2848 62.4489C76.4232 62.5418 76.5823 62.5995 76.7481 62.6169C77.3103 62.6676 83.6902 61.5288 83.6902 61.5288V62.0728L75.8704 63.5853C75.8099 63.0837 75.8382 62.5754 75.9538 62.0837Z" fill="url(#paint13_linear)"/>
<path opacity="0.18" d="M86.0659 62.1998C86.7623 62.9252 87.4333 63.6506 88.068 64.4267C88.1587 64.5392 88.2566 64.6988 88.1768 64.8221C88.097 64.9454 87.854 64.8982 87.6981 64.8221L87.0271 64.4376C87.3757 65.1721 87.5448 65.9789 87.5203 66.7916C87.4184 66.7785 87.3205 66.7439 87.2329 66.6901C87.1454 66.6364 87.0703 66.5646 87.0126 66.4796C86.9276 67.2769 87.0015 68.0832 87.2302 68.8517C87.4693 69.8076 87.6534 70.7764 87.7815 71.7533C87.8105 71.9963 87.7452 72.3409 87.4986 72.33C87.3136 72.33 87.2229 72.0979 87.1866 71.9165C86.8022 70.0196 87.0162 67.9268 86.026 66.2729C85.2027 67.6979 84.8917 69.3618 85.1446 70.988C85.2534 71.6663 85.4602 72.3264 85.5327 73.0083C85.6923 74.4591 85.2607 75.8845 84.8327 77.27C84.1653 76.0005 84.5244 74.4699 84.6115 73.0373C84.7203 71.2818 84.3938 69.4647 84.9234 67.7854C85.112 67.1833 85.4094 66.5848 85.3332 65.9718C85.2889 65.726 85.2271 65.4835 85.1483 65.2464C84.9234 64.3941 84.9814 63.4329 84.4555 62.7257C84.1726 62.363 83.4508 61.5179 84.285 61.2567C84.8944 61.05 85.6959 61.8262 86.0659 62.1998Z" fill="#F7931E"/>
<path d="M16.3256 83.6028L13.7359 68.6341L30.373 69.5372L33.4923 85.9277L16.3256 83.6028Z" fill="#F7931E"/>
<path d="M33.4923 85.9277L44.3552 82.852L32.4078 80.2333L33.4923 85.9277Z" fill="#F7931E"/>
<path d="M33.4923 85.9277L44.3552 82.852L32.4078 80.2333L33.4923 85.9277Z" fill="url(#paint14_linear)"/>
<path d="M32.8865 82.7432L36.8835 83.6681L33.3726 85.293L32.8865 82.7432Z" fill="url(#paint15_linear)"/>
<path d="M32.8103 82.3587L34.5513 82.7432L36.441 81.6442L32.4984 80.7157L32.8103 82.3587Z" fill="url(#paint16_linear)"/>
</g>
<defs>
<linearGradient id="paint0_linear" x1="26.6372" y1="76.3596" x2="22.8578" y2="89.3299" gradientUnits="userSpaceOnUse">
<stop offset="0.01"/>
<stop offset="0.13" stop-opacity="0.69"/>
<stop offset="1" stop-opacity="0"/>
</linearGradient>
<linearGradient id="paint1_linear" x1="7946.09" y1="3264.45" x2="7900.28" y2="2338.38" gradientUnits="userSpaceOnUse">
<stop offset="0.01"/>
<stop offset="0.13" stop-opacity="0.69"/>
<stop offset="1" stop-opacity="0"/>
</linearGradient>
<linearGradient id="paint2_linear" x1="6524.12" y1="1461.6" x2="6414.95" y2="2956.18" gradientUnits="userSpaceOnUse">
<stop offset="0.01"/>
<stop offset="0.13" stop-opacity="0.69"/>
<stop offset="1" stop-opacity="0"/>
</linearGradient>
<linearGradient id="paint3_linear" x1="235.217" y1="187.869" x2="228.138" y2="196.9" gradientUnits="userSpaceOnUse">
<stop offset="0.01"/>
<stop offset="0.13" stop-opacity="0.69"/>
<stop offset="1" stop-opacity="0"/>
</linearGradient>
<linearGradient id="paint4_linear" x1="2210.74" y1="1659.35" x2="2210.74" y2="2099.64" gradientUnits="userSpaceOnUse">
<stop offset="0.01"/>
<stop offset="0.13" stop-opacity="0.69"/>
<stop offset="1" stop-opacity="0"/>
</linearGradient>
<linearGradient id="paint5_linear" x1="1322.29" y1="1856.96" x2="1131.33" y2="1674.61" gradientUnits="userSpaceOnUse">
<stop offset="0.01"/>
<stop offset="0.13" stop-opacity="0.69"/>
<stop offset="1" stop-opacity="0"/>
</linearGradient>
<linearGradient id="paint6_linear" x1="988.032" y1="1215.68" x2="820.204" y2="1150.47" gradientUnits="userSpaceOnUse">
<stop offset="0.01"/>
<stop offset="0.13" stop-opacity="0.69"/>
<stop offset="1" stop-opacity="0"/>
</linearGradient>
<linearGradient id="paint7_linear" x1="975.99" y1="2368.37" x2="1404.41" y2="2018.81" gradientUnits="userSpaceOnUse">
<stop offset="0.01"/>
<stop offset="0.13" stop-opacity="0.69"/>
<stop offset="1" stop-opacity="0"/>
</linearGradient>
<linearGradient id="paint8_linear" x1="913.771" y1="2995.07" x2="1142.57" y2="2995.07" gradientUnits="userSpaceOnUse">
<stop offset="0.01"/>
<stop offset="0.13" stop-opacity="0.69"/>
<stop offset="1" stop-opacity="0"/>
</linearGradient>
<linearGradient id="paint9_linear" x1="937.206" y1="2315.93" x2="1221.88" y2="1956.36" gradientUnits="userSpaceOnUse">
<stop offset="0.01"/>
<stop offset="0.13" stop-opacity="0.69"/>
<stop offset="1" stop-opacity="0"/>
</linearGradient>
<linearGradient id="paint10_linear" x1="243.991" y1="203.546" x2="252.069" y2="229.223" gradientUnits="userSpaceOnUse">
<stop offset="0.01"/>
<stop offset="0.13" stop-opacity="0.69"/>
<stop offset="1" stop-opacity="0"/>
</linearGradient>
<linearGradient id="paint11_linear" x1="2318.02" y1="2155.03" x2="1799.09" y2="1733.13" gradientUnits="userSpaceOnUse">
<stop offset="0.01"/>
<stop offset="0.13" stop-opacity="0.69"/>
<stop offset="1" stop-opacity="0"/>
</linearGradient>
<linearGradient id="paint12_linear" x1="399.032" y1="731.983" x2="358.875" y2="737.631" gradientUnits="userSpaceOnUse">
<stop offset="0.01"/>
<stop offset="0.13" stop-opacity="0.69"/>
<stop offset="1" stop-opacity="0"/>
</linearGradient>
<linearGradient id="paint13_linear" x1="1755.43" y1="464.295" x2="1754.52" y2="413.114" gradientUnits="userSpaceOnUse">
<stop offset="0.01"/>
<stop offset="0.13" stop-opacity="0.69"/>
<stop offset="1" stop-opacity="0"/>
</linearGradient>
<linearGradient id="paint14_linear" x1="1207.08" y1="1320.65" x2="1100.18" y2="1588.69" gradientUnits="userSpaceOnUse">
<stop offset="0.01"/>
<stop offset="0.13" stop-opacity="0.69"/>
<stop offset="1" stop-opacity="0"/>
</linearGradient>
<linearGradient id="paint15_linear" x1="341.932" y1="673.407" x2="385.979" y2="673.407" gradientUnits="userSpaceOnUse">
<stop offset="0.01"/>
<stop offset="0.13" stop-opacity="0.69"/>
<stop offset="1" stop-opacity="0"/>
</linearGradient>
<linearGradient id="paint16_linear" x1="333.119" y1="537.59" x2="375.975" y2="537.59" gradientUnits="userSpaceOnUse">
<stop offset="0.01"/>
<stop offset="0.13" stop-opacity="0.69"/>
<stop offset="1" stop-opacity="0"/>
</linearGradient>
<clipPath id="clip0">
<rect width="140" height="105.517" fill="white"/>
</clipPath>
</defs>
</svg>
