<svg xmlns="http://www.w3.org/2000/svg" viewBox="0 0 19.93 19.93"><defs><style>.cls-1{fill:#fff;}.cls-1,.cls-2{fill-rule:evenodd;}.cls-2{fill:#575756;}</style></defs><g id="Capa_2" data-name="Capa 2"><g id="Redes_Sociales" data-name="Redes Sociales"><g id="WhatsApp"><path class="cls-1" d="M10,2A7.93,7.93,0,1,1,10,17.8a8,8,0,0,1-3.83-1l-.55-.3-3,.8.81-2.88-.33-.57A7.84,7.84,0,0,1,2,9.87,8,8,0,0,1,10,2ZM5.42,18.19a9.47,9.47,0,1,0-3.65-3.52L.39,19.54Z"/><path class="cls-2" d="M18,9.87A8,8,0,0,0,2,9.87a7.84,7.84,0,0,0,1.09,4l.33.57-.81,2.88,3-.8.55.3a8,8,0,0,0,11.8-7ZM7.72,9.47a6.74,6.74,0,0,0,1.57,1.76c.7.54,1.79,1.24,2.15.93.17-.15.63-.82.69-.86a.58.58,0,0,1,.76-.16l1.69.83a.51.51,0,0,1,.25.52,4.23,4.23,0,0,1,0,.51s-.17,1.4-2.09,1.45a6,6,0,0,1-2.78-.78,9.42,9.42,0,0,1-3.49-2.95A4.87,4.87,0,0,1,5.18,7.58c.21-1.83,1.38-2,1.38-2h.52c.41,0,.5.27.5.27s.57,1.29.78,1.78,0,.71-.07.77-.35.42-.51.58A.42.42,0,0,0,7.72,9.47Z"/><path class="cls-1" d="M8.36,7.63c-.21-.49-.78-1.78-.78-1.78s-.09-.26-.5-.27H6.56s-1.17.17-1.38,2a4.87,4.87,0,0,0,1.26,3.14,9.42,9.42,0,0,0,3.49,2.95,6,6,0,0,0,2.78.78C14.63,14.4,14.8,13,14.8,13a4.23,4.23,0,0,0,0-.51.51.51,0,0,0-.25-.52l-1.69-.83a.58.58,0,0,0-.76.16c-.06,0-.52.71-.69.86-.36.31-1.45-.39-2.15-.93A6.74,6.74,0,0,1,7.72,9.47.42.42,0,0,1,7.78,9c.16-.16.46-.52.51-.58S8.57,8.13,8.36,7.63Z"/><path d="M17,2.89a10,10,0,0,0-12.8-1,.4.4,0,0,0-.09.54.39.39,0,0,0,.55.09A9.12,9.12,0,1,1,10,19a9.22,9.22,0,0,1-4.4-1.12.36.36,0,0,0-.29,0L1,19l1.19-4.22a.35.35,0,0,0,0-.3A9.05,9.05,0,0,1,.85,9.87,8.93,8.93,0,0,1,2.56,4.59a.39.39,0,1,0-.64-.46A9.77,9.77,0,0,0,.07,9.87a9.89,9.89,0,0,0,1.27,4.85L0,19.44a.41.41,0,0,0,.1.38.43.43,0,0,0,.28.11h.1l4.88-1.31A10.06,10.06,0,0,0,10,19.75a9.9,9.9,0,0,0,7-2.89,9.84,9.84,0,0,0,0-14Z"/><path d="M16.42,14.59a.4.4,0,0,0,.54-.1,8.28,8.28,0,0,0-1-10.5A8.43,8.43,0,0,0,4.08,4a8.28,8.28,0,0,0-1.3,10.09L3,14.5l-.76,2.72a.38.38,0,0,0,.1.38.38.38,0,0,0,.38.1l2.82-.76.41.23a8.44,8.44,0,0,0,8.66-.37.39.39,0,0,0,.11-.54.4.4,0,0,0-.55-.11,7.64,7.64,0,0,1-7.84.34l-.55-.3a.39.39,0,0,0-.3,0l-2.3.62.62-2.22a.35.35,0,0,0,0-.3l-.34-.57A7.57,7.57,0,1,1,17.58,9.87a7.48,7.48,0,0,1-1.27,4.18A.39.39,0,0,0,16.42,14.59Z"/><path d="M8.57,8.68l0,0a1,1,0,0,0,.13-1.17C8.52,7,8,5.82,7.94,5.7a.89.89,0,0,0-.86-.51,3.13,3.13,0,0,0-.57,0h0c-.06,0-1.47.23-1.71,2.33A5,5,0,0,0,6.13,11,9.72,9.72,0,0,0,9.76,14a6.75,6.75,0,0,0,2.86.83h.1A2.57,2.57,0,0,0,14.78,14a2,2,0,0,0,.41-.9,4.5,4.5,0,0,0,0-.55.9.9,0,0,0-.47-.88l-1.69-.83a1,1,0,0,0-1.18.21h0a2.12,2.12,0,0,0-.27.34c-.11.13-.31.41-.4.5a4.14,4.14,0,0,1-1.67-.93A6.12,6.12,0,0,1,8.07,9.28a0,0,0,0,1,0,0C8.2,9.11,8.42,8.86,8.57,8.68Zm.48,2.85a7.77,7.77,0,0,0,1.27.83c.23.12.94.48,1.38.09a5.34,5.34,0,0,0,.52-.64l.18-.23.06-.05c.07-.08.1-.11.26,0l1.69.83a.27.27,0,0,1,0,.15c0,.33,0,.44,0,.47h0a1.4,1.4,0,0,1-.27.54,1.92,1.92,0,0,1-1.46.58,6,6,0,0,1-2.58-.74,9,9,0,0,1-3.36-2.85A4.35,4.35,0,0,1,5.57,7.62C5.73,6.21,6.51,6,6.61,6h.46c.09,0,.14,0,.15,0L8,7.79c.1.24,0,.31,0,.34v0l0,0c-.22.27-.38.45-.47.54a.78.78,0,0,0-.11.95A6.84,6.84,0,0,0,9.05,11.53Z"/></g></g></g></svg>