<svg xmlns="http://www.w3.org/2000/svg" viewBox="0 0 20.2 19.76"><defs><style>.cls-1{fill:#fff;}.cls-1,.cls-2{fill-rule:evenodd;}.cls-2{fill:#575756;}</style></defs><g id="Capa_2" data-name="Capa 2"><g id="Redes_Sociales" data-name="Redes Sociales"><g id="Instagram"><path class="cls-1" d="M5.13,1.93h9.94A3.13,3.13,0,0,1,18.23,5v9.72a3.13,3.13,0,0,1-3.16,3.09H5.13A3.13,3.13,0,0,1,2,14.74V5A3.13,3.13,0,0,1,5.13,1.93ZM15.07.39H5.13A4.7,4.7,0,0,0,.39,5v9.72a4.7,4.7,0,0,0,4.74,4.63h9.94a4.7,4.7,0,0,0,4.74-4.63V5A4.7,4.7,0,0,0,15.07.39Z"/><path class="cls-2" d="M15.07,1.93H5.13A3.13,3.13,0,0,0,2,5v9.72a3.13,3.13,0,0,0,3.16,3.09h9.94a3.13,3.13,0,0,0,3.16-3.09V5A3.13,3.13,0,0,0,15.07,1.93Zm0,1.93A1.16,1.16,0,1,1,13.89,5,1.17,1.17,0,0,1,15.07,3.86ZM10.1,6A3.86,3.86,0,1,1,6.15,9.88,3.91,3.91,0,0,1,10.1,6Z"/><path class="cls-1" d="M16.26,5a1.19,1.19,0,1,1-1.19-1.16A1.17,1.17,0,0,1,16.26,5Z"/><path class="cls-1" d="M14.05,9.88a4,4,0,1,0-4,3.86A3.91,3.91,0,0,0,14.05,9.88Zm-4-2.31A2.31,2.31,0,1,1,7.73,9.88,2.34,2.34,0,0,1,10.1,7.57Z"/><path class="cls-1" d="M12.47,9.88A2.37,2.37,0,1,1,10.1,7.57,2.34,2.34,0,0,1,12.47,9.88Z"/><path d="M15.07,0H6.31a.12.12,0,0,0-.08,0,.12.12,0,0,0-.08,0h-1A5.08,5.08,0,0,0,0,5v9.72a5.08,5.08,0,0,0,5.13,5h9.94a5.08,5.08,0,0,0,5.13-5V5A5.08,5.08,0,0,0,15.07,0Zm4.34,14.74A4.29,4.29,0,0,1,15.07,19H5.13A4.29,4.29,0,0,1,.79,14.74V5A4.29,4.29,0,0,1,5.13.78h1a.12.12,0,0,0,.08,0,.12.12,0,0,0,.08,0h8.76A4.29,4.29,0,0,1,19.41,5Z"/><path d="M15.07,1.55H5.13A3.51,3.51,0,0,0,1.58,5v9.72a3.51,3.51,0,0,0,3.55,3.47h8.76a.17.17,0,0,1,.16,0h1a3.51,3.51,0,0,0,3.55-3.47V5A3.51,3.51,0,0,0,15.07,1.55Zm2.76,13.19a2.73,2.73,0,0,1-2.76,2.7h-1a.17.17,0,0,1-.16,0H5.13a2.73,2.73,0,0,1-2.76-2.7V5a2.73,2.73,0,0,1,2.76-2.7h9.94A2.73,2.73,0,0,1,17.83,5Z"/><path d="M14.44,9.88a4.34,4.34,0,0,0-8.68,0,4.34,4.34,0,0,0,8.68,0ZM10.1,13.35a3.47,3.47,0,1,1,3.55-3.47A3.52,3.52,0,0,1,10.1,13.35Z"/><path d="M10.1,7.18a2.7,2.7,0,1,0,2.76,2.7A2.73,2.73,0,0,0,10.1,7.18Zm0,4.63a1.93,1.93,0,1,1,2-1.93A2,2,0,0,1,10.1,11.81Z"/><path d="M16.65,5a1.58,1.58,0,1,0-1.58,1.54A1.56,1.56,0,0,0,16.65,5ZM14.28,5a.79.79,0,1,1,.79.77A.78.78,0,0,1,14.28,5Z"/></g></g></g></svg>