<svg xmlns="http://www.w3.org/2000/svg" viewBox="0 0 20 20"><defs><style>.cls-1{fill:#575756;}.cls-1,.cls-2{fill-rule:evenodd;}.cls-2{fill:#fff;}</style></defs><g id="Capa_2" data-name="Capa 2"><g id="Redes_Sociales" data-name="Redes Sociales"><path class="cls-1" d="M18.83.39H1.17a.78.78,0,0,0-.78.78V18.83a.78.78,0,0,0,.78.78H18.83a.78.78,0,0,0,.78-.78V1.17A.78.78,0,0,0,18.83.39Z"/><path class="cls-2" d="M6.48,4.84A1.67,1.67,0,1,1,4.81,3.17,1.66,1.66,0,0,1,6.48,4.84Z"/><path class="cls-2" d="M3.38,7.69H6.25v9.14H3.38Z"/><path class="cls-2" d="M8,7.69v9.14h2.87V11.55a1.57,1.57,0,0,1,3.14,0v5.28h2.88V10.9a3.41,3.41,0,0,0-6.17-2V7.69Z"/><path d="M18.83,0H1.17A1.18,1.18,0,0,0,0,1.17V18.83A1.18,1.18,0,0,0,1.17,20H18.83A1.18,1.18,0,0,0,20,18.83V1.17A1.18,1.18,0,0,0,18.83,0Zm.39,18.83a.4.4,0,0,1-.39.39H1.17a.4.4,0,0,1-.39-.39V1.17A.4.4,0,0,1,1.17.78H18.83a.4.4,0,0,1,.39.39Z"/><path d="M4.81,6.9A2.06,2.06,0,1,0,2.75,4.84,2.06,2.06,0,0,0,4.81,6.9Zm0-3.34A1.28,1.28,0,1,1,3.54,4.84,1.28,1.28,0,0,1,4.81,3.56Z"/><path d="M13.45,7.1a3.82,3.82,0,0,0-2.37.83V7.69a.39.39,0,0,0-.39-.4H8a.39.39,0,0,0-.39.4v9.14a.39.39,0,0,0,.39.39h2.87a.39.39,0,0,0,.39-.39V11.55a1.18,1.18,0,1,1,2.36,0v5.28a.4.4,0,0,0,.39.39h2.88a.4.4,0,0,0,.39-.39V10.9A3.8,3.8,0,0,0,13.45,7.1Zm3,9.34H14.37V11.55a2,2,0,1,0-3.92,0v4.89H8.36V8.08H10.3V8.9a.39.39,0,0,0,.27.37A.41.41,0,0,0,11,9.13a3,3,0,0,1,5.45,1.77Z"/><path d="M3.38,7.29a.39.39,0,0,0-.39.4v9.14a.39.39,0,0,0,.39.39H6.25a.39.39,0,0,0,.39-.39V7.69a.39.39,0,0,0-.39-.4Zm2.48,9.15H3.77V8.08H5.86Z"/></g></g></svg>