<svg xmlns="http://www.w3.org/2000/svg" viewBox="0 0 20 20"><defs><style>.cls-1{fill:#fff;}.cls-2{fill:#575756;}</style></defs><g id="Capa_2" data-name="Capa 2"><g id="Redes_Sociales" data-name="Redes Sociales"><g id="Facebook"><rect id="Background" class="cls-1" x="1.82" y="1.35" width="15.75" height="18.65" rx="2.06"/><path class="cls-2" d="M16.17.4H3.82A3.43,3.43,0,0,0,.39,3.83V16.18a3.44,3.44,0,0,0,3.43,3.43H10V11.94H7.69V9.16H10v-2a3.06,3.06,0,0,1,3.28-3.32H16.2V6.54H14a.66.66,0,0,0-.7.75V9.15h2.93l-.28,2.79H13.28v7.67h2.89a3.43,3.43,0,0,0,3.43-3.43V3.83A3.42,3.42,0,0,0,16.17.4Z"/><path d="M16.17,0H3.82A3.83,3.83,0,0,0,0,3.83V16.18A3.82,3.82,0,0,0,3.82,20H10a.39.39,0,0,0,.39-.39V11.94a.39.39,0,0,0-.39-.39H8.08v-2H10a.4.4,0,0,0,.39-.4v-2a2.67,2.67,0,0,1,2.89-2.92H15.8V6.15H14a1,1,0,0,0-1.09,1.14V9.15a.39.39,0,0,0,.39.39h2.5l-.2,2h-2.3a.38.38,0,0,0-.39.39v7.67a.38.38,0,0,0,.39.39h2.89A3.83,3.83,0,0,0,20,16.18V3.83A3.84,3.84,0,0,0,16.17,0Zm3,16.18a3,3,0,0,1-3,3h-2.5V12.33h2.26a.39.39,0,0,0,.39-.35l.28-2.79a.4.4,0,0,0-.1-.31.38.38,0,0,0-.29-.12H13.67V7.29c0-.26.08-.36.31-.36H16.2a.4.4,0,0,0,.39-.39V3.82a.4.4,0,0,0-.39-.4H13.28a3.43,3.43,0,0,0-3,1.34A4.12,4.12,0,0,0,9.6,7.13V8.77H7.69a.4.4,0,0,0-.39.39v2.78a.4.4,0,0,0,.39.39H9.6v6.89H3.82a3,3,0,0,1-3-3V3.83a3,3,0,0,1,3-3H16.17a3,3,0,0,1,3,3Z"/></g></g></g></svg>