<svg xmlns="http://www.w3.org/2000/svg" viewBox="0 0 146.99 55"><defs><style>.cls-1{fill:#42b883;}.cls-2{fill:#f7931e;}.cls-3{fill:#fff;}.cls-4{fill:#333;}.cls-5{opacity:0.15;}</style></defs><g id="Navbar"><polygon class="cls-1" points="111.17 20.31 111.17 22.32 122.03 26.94 122.03 26.94 122.03 27.21 122.03 27.21 122.03 27.22 122.03 27.51 122.03 27.51 111.17 32.13 111.17 34.17 124.03 28.33 124.03 26.12 111.17 20.31"/><path class="cls-1" d="M27.89,39.76A2.67,2.67,0,0,1,27.4,38v-7.4a5.36,5.36,0,0,0-.35-2.13,2.87,2.87,0,0,0-.9-1.18,3,3,0,0,0,.9-1.21,5.45,5.45,0,0,0,.35-2.12V16.51a2.66,2.66,0,0,1,.49-1.79,2.08,2.08,0,0,1,1.62-.56H32V12.28H29.51a3.85,3.85,0,0,0-2.91.93,4.74,4.74,0,0,0-.87,3.25v7.46a4.16,4.16,0,0,1-.13,1.14,2.16,2.16,0,0,1-.34.73,1.21,1.21,0,0,1-.51.39,1.52,1.52,0,0,1-.59.12H23v1.88h1.2a1.42,1.42,0,0,1,1.1.52,2.8,2.8,0,0,1,.47,1.86V38a4.76,4.76,0,0,0,.87,3.24,3.85,3.85,0,0,0,2.91.94H32V40.31H29.51A2.07,2.07,0,0,1,27.89,39.76Z"/><rect class="cls-2" x="46.98" y="25.92" width="9.2" height="2.63"/><path class="cls-3" d="M104.59,22.32h-5.5V18.53H96.64V31.78c0,1.39-.41,1.48-1.17,1.49l-1.26,0H86.29a1.78,1.78,0,0,1-1.47-.53,2,2,0,0,1-.44-1.35v-1h5.9a4.35,4.35,0,0,0,3.25-1,4.09,4.09,0,0,0,1-2.91,4.44,4.44,0,0,0-1-3.08,4.11,4.11,0,0,0-3.19-1.1h-4a5.07,5.07,0,0,0-2,.34A3.5,3.5,0,0,0,83,23.6,3.71,3.71,0,0,0,82.2,25,6.38,6.38,0,0,0,82,26.81v1.47H80a.56.56,0,0,1-.54-.59V18.53H76.68V32.31a1.08,1.08,0,0,1-.23.71.71.71,0,0,1-.57.27.88.88,0,0,1-.87-.72L71.15,21.44a5.87,5.87,0,0,0-1.31-2.36,3.27,3.27,0,0,0-2.45-.86,3.22,3.22,0,0,0-2.63,1A4.18,4.18,0,0,0,63.89,22v10.3a1.08,1.08,0,0,1-.23.71.75.75,0,0,1-.59.27.76.76,0,0,1-.54-.19,1.33,1.33,0,0,1-.33-.53l-4.75-14h-3L59.4,33a6,6,0,0,0,1.31,2.37,3.85,3.85,0,0,0,5.07-.19,4.13,4.13,0,0,0,.89-2.77V22.17a1.13,1.13,0,0,1,.22-.74.71.71,0,0,1,.57-.27.79.79,0,0,1,.56.21,1.22,1.22,0,0,1,.34.54L72.21,33a5.85,5.85,0,0,0,1.31,2.37,3.85,3.85,0,0,0,5.07-.19,4.13,4.13,0,0,0,.88-2.77v-2l2,0A.56.56,0,0,1,82,31v.38a6.47,6.47,0,0,0,.21,1.85A4.13,4.13,0,0,0,83,34.67a3.5,3.5,0,0,0,1.34.94,5.07,5.07,0,0,0,2,.34h18.3a4.91,4.91,0,0,0,3.92-1.68A7.74,7.74,0,0,0,110,29.14,7.77,7.77,0,0,0,108.51,24,4.89,4.89,0,0,0,104.59,22.32ZM84.38,26.84a2.06,2.06,0,0,1,.44-1.34A1.76,1.76,0,0,1,86.29,25h4a1.73,1.73,0,0,1,1.34.47,1.78,1.78,0,0,1,.43,1.24,1.62,1.62,0,0,1-.42,1.18,1.84,1.84,0,0,1-1.42.44H84.38Zm22.32,5.48c-.5.65-1.23,1-2.77,1h-1.59a3.6,3.6,0,0,1-2.61-.77A4,4,0,0,1,99.09,30V25h5.25a2.78,2.78,0,0,1,2.36,1,5.46,5.46,0,0,1,.74,3.21A5.31,5.31,0,0,1,106.7,32.32Z"/><path class="cls-2" d="M32,36h5.49a.92.92,0,0,1,.87,1v6.41a.92.92,0,0,1-.87,1h-.19a.91.91,0,0,0-.86.95V49a.92.92,0,0,0,.86,1H40.7a.92.92,0,0,0,.87-1V45.23a.92.92,0,0,0-.87-.95h-.18a.92.92,0,0,1-.87-1V36.78a.94.94,0,0,1,.75-1,6.22,6.22,0,0,0,3-1.25.79.79,0,0,1,1.1.11l3.11,3.54a1,1,0,0,1,0,1.35h0a1,1,0,0,0,0,1.36l2.22,2.43a.82.82,0,0,0,1.23,0l2.19-2.46a1,1,0,0,0,0-1.35L51,37.12a.8.8,0,0,0-1.22,0h0a.81.81,0,0,1-1.23,0L45.29,33.4a1,1,0,0,1-.16-1.1,12.6,12.6,0,0,0,.88-5q0-4.44-1.82-6.58a6.05,6.05,0,0,0-3.81-2,.94.94,0,0,1-.74-.95v-6a.92.92,0,0,1,.87-1h.19a.92.92,0,0,0,.87-1V6a.92.92,0,0,0-.87-1H37.26a.92.92,0,0,0-.86,1V9.77a.91.91,0,0,0,.86,1h.2a.91.91,0,0,1,.86,1v5.89a.91.91,0,0,1-.86,1H32Zm2.77-3.36V21.88a.28.28,0,0,1,.31-.31h3.83a4,4,0,0,1,3.34,1.33,7.13,7.13,0,0,1,1,4.33,7.14,7.14,0,0,1-1,4.33,3.93,3.93,0,0,1-3.33,1.34H35A.27.27,0,0,1,34.73,32.59Z"/><ellipse class="cls-4" cx="38.98" cy="47.21" rx="1.8" ry="2"/><ellipse class="cls-4" cx="50.31" cy="40.08" rx="1.8" ry="2"/><ellipse class="cls-4" cx="38.98" cy="7.76" rx="1.8" ry="2"/></g></svg>